<?xml version="1.0" encoding="UTF-8"?>
<svg xmlns="http://www.w3.org/2000/svg" xmlns:xlink="http://www.w3.org/1999/xlink" viewBox="0 0 64 64" version="1.1">
<g id="surface1">
<path style=" fill:#9FDDFF;" d="M 40.160156 4.542969 C 54.773438 9.601563 62.523438 25.546875 57.464844 40.160156 C 52.40625 54.773438 36.460938 62.519531 21.847656 57.464844 C 7.234375 52.40625 -0.515625 36.460938 4.542969 21.847656 C 9.601563 7.234375 25.546875 -0.515625 40.160156 4.542969 Z "/>
<path style=" fill:#85CBF8;" d="M 31 54 C 20.996094 54 12.140625 47.53125 9.09375 38 C 6.050781 28.472656 9.515625 18.066406 17.664063 12.265625 C 25.8125 6.460938 36.777344 6.59375 44.785156 12.585938 C 52.796875 18.582031 56.011719 29.066406 52.738281 38.519531 C 49.535156 47.785156 40.804688 54 31 54 Z "/>
<path style=" fill:#FFF7F0;" d="M 13 29 L 49 29 L 49 35 L 13 35 Z "/>
<path style=" fill:#FFF7F0;" d="M 17.46875 44.511719 C 16.917969 44.511719 16.46875 44.0625 16.46875 43.511719 L 16.550781 40.511719 C 16.566406 40.023438 16.699219 39.542969 16.941406 39.121094 L 20.589844 32.671875 L 26.859375 21.75 C 27.089844 21.347656 27.472656 21.050781 27.921875 20.929688 C 28.367188 20.808594 28.847656 20.867188 29.25 21.101563 L 31.191406 22.210938 C 31.59375 22.4375 31.886719 22.816406 32.007813 23.265625 C 32.132813 23.710938 32.070313 24.1875 31.839844 24.589844 L 26.640625 33.648438 L 22 41.839844 C 21.703125 42.367188 21.253906 42.792969 20.710938 43.058594 L 17.929688 44.421875 C 17.785156 44.484375 17.628906 44.515625 17.46875 44.511719 Z "/>
<path style=" fill:#FFF7F0;" d="M 40.230469 37.699219 C 39.425781 37.699219 38.699219 37.214844 38.390625 36.46875 L 29.191406 14.570313 C 28.988281 14.113281 29.035156 13.585938 29.308594 13.171875 C 29.597656 12.75 30.070313 12.496094 30.578125 12.488281 C 31.117188 12.492188 31.609375 12.78125 31.871094 13.25 L 43.648438 33.878906 C 43.925781 34.359375 43.988281 34.929688 43.828125 35.457031 C 43.667969 35.988281 43.296875 36.425781 42.800781 36.671875 L 41.121094 37.5 C 40.84375 37.632813 40.539063 37.703125 40.230469 37.699219 Z "/>
<path style=" fill:#FFF7F0;" d="M 45.640625 45.550781 C 45.257813 45.550781 44.910156 45.332031 44.738281 44.988281 C 44.128906 43.761719 43.738281 43.640625 43.101563 43.480469 C 42.109375 43.285156 41.28125 42.617188 40.878906 41.691406 C 40.160156 40.210938 40.765625 38.425781 42.238281 37.691406 C 43.71875 36.96875 45.507813 37.574219 46.238281 39.050781 C 46.792969 40.148438 47.128906 41.335938 47.238281 42.558594 C 47.371094 44.558594 46.558594 45.210938 46.058594 45.460938 C 45.929688 45.519531 45.785156 45.550781 45.640625 45.550781 Z "/>
<path style=" fill:#8D6C9F;" d="M 57.078125 18.328125 C 51.953125 7.78125 40.976563 1.355469 29.269531 2.054688 C 17.5625 2.753906 7.425781 10.433594 3.589844 21.519531 C -1.65625 36.65625 6.359375 53.179688 21.496094 58.425781 C 36.628906 63.671875 53.152344 55.65625 58.398438 40.519531 C 60.945313 33.246094 60.472656 25.253906 57.078125 18.328125 Z M 56.511719 39.828125 C 52.292969 52 40.0625 59.496094 27.304688 57.734375 C 14.542969 55.96875 4.804688 45.441406 4.046875 32.582031 C 3.285156 19.722656 11.714844 8.117188 24.175781 4.863281 C 36.640625 1.609375 49.667969 7.613281 55.289063 19.199219 C 58.417969 25.644531 58.855469 33.0625 56.511719 39.828125 Z "/>
<path style=" fill:#8D6C9F;" d="M 49 28 L 41.449219 28 L 32.75 12.761719 C 32.316406 11.972656 31.488281 11.484375 30.589844 11.488281 C 29.742188 11.488281 28.949219 11.910156 28.480469 12.621094 C 28.007813 13.324219 27.929688 14.222656 28.269531 15 L 30.710938 20.808594 L 29.710938 20.261719 C 29.296875 20.019531 28.828125 19.898438 28.351563 19.898438 C 27.386719 19.90625 26.496094 20.414063 26 21.238281 L 23 26.429688 L 22.109375 28 L 13 28 C 12.449219 28 12 28.449219 12 29 L 12 35 C 12 35.550781 12.449219 36 13 36 L 17.550781 36 L 16.078125 38.609375 C 15.757813 39.175781 15.582031 39.808594 15.558594 40.460938 L 15.46875 43.460938 C 15.453125 44.15625 15.800781 44.8125 16.390625 45.191406 C 16.988281 45.585938 17.75 45.632813 18.390625 45.308594 L 21.128906 44 C 21.859375 43.644531 22.460938 43.074219 22.859375 42.371094 L 26.449219 36 L 37.109375 36 L 37.46875 36.859375 C 37.90625 37.890625 38.882813 38.59375 40 38.679688 C 39.425781 39.757813 39.425781 41.050781 40 42.128906 C 40.53125 43.308594 41.585938 44.167969 42.851563 44.441406 C 43.300781 44.570313 43.449219 44.609375 43.851563 45.441406 C 44.085938 45.917969 44.5 46.28125 45 46.449219 C 45.503906 46.621094 46.054688 46.585938 46.53125 46.351563 C 47.25 46 48.429688 45.019531 48.261719 42.488281 C 48.140625 41.136719 47.769531 39.816406 47.160156 38.601563 C 46.621094 37.515625 45.621094 36.730469 44.441406 36.46875 C 44.535156 36.320313 44.613281 36.164063 44.679688 36 L 49 36 C 49.550781 36 50 35.550781 50 35 L 50 29 C 50 28.449219 49.550781 28 49 28 Z M 14 34 L 14 30 L 21 30 L 19.769531 32.148438 L 18.769531 34 Z M 21.121094 41.351563 C 20.921875 41.699219 20.621094 41.984375 20.261719 42.160156 L 17.46875 43.511719 L 17.558594 40.511719 C 17.570313 40.183594 17.660156 39.863281 17.820313 39.578125 L 17.910156 39.421875 L 21.148438 41.289063 Z M 25.769531 33.140625 L 25.28125 34 L 24.148438 36 L 22.148438 39.558594 L 18.898438 37.691406 L 19.898438 36 L 21 34 L 21.488281 33.140625 L 23.269531 30 L 24.421875 28 L 24.75 27.421875 L 27.75 22.230469 C 27.882813 21.996094 28.132813 21.855469 28.398438 21.859375 C 28.527344 21.859375 28.65625 21.890625 28.769531 21.949219 L 30.710938 23.070313 C 31.054688 23.273438 31.179688 23.714844 30.988281 24.070313 L 28.71875 28 L 28.230469 28.851563 L 27.570313 30 Z M 32.601563 25.261719 L 33.75 28 L 31 28 Z M 27.601563 34 L 29.898438 30 L 34.609375 30 L 36.289063 34 Z M 40.699219 36.589844 C 40.5625 36.664063 40.40625 36.703125 40.25 36.699219 C 39.847656 36.699219 39.488281 36.460938 39.328125 36.089844 L 39.328125 36 L 36.808594 30 L 35.980469 28 L 30.179688 14.191406 C 30.113281 14.035156 30.128906 13.851563 30.222656 13.710938 C 30.316406 13.570313 30.480469 13.484375 30.648438 13.488281 C 30.828125 13.488281 30.992188 13.589844 31.070313 13.75 L 39.140625 28 L 40.289063 30 L 42.570313 34 L 42.78125 34.371094 C 42.917969 34.609375 42.953125 34.894531 42.875 35.160156 C 42.792969 35.425781 42.609375 35.648438 42.359375 35.769531 L 41.890625 36 Z M 45.390625 39.480469 C 46.390625 41.570313 46.648438 44.058594 45.660156 44.550781 C 44.191406 41.550781 42.828125 43.339844 41.800781 41.25 C 41.3125 40.257813 41.71875 39.058594 42.710938 38.570313 C 43.703125 38.082031 44.902344 38.488281 45.390625 39.480469 Z M 48 34 L 44.78125 34 C 44.71875 33.785156 44.628906 33.578125 44.519531 33.378906 L 42.589844 30 L 48 30 Z "/>
<path style=" fill:#8D6C9F;" d="M 31 51 C 30.449219 51 30 51.449219 30 52 L 30 54 C 30 54.550781 30.449219 55 31 55 C 31.550781 55 32 54.550781 32 54 L 32 52 C 32 51.449219 31.550781 51 31 51 Z "/>
<path style=" fill:#8D6C9F;" d="M 37 51.078125 C 36.84375 50.566406 36.304688 50.265625 35.785156 50.40625 C 35.261719 50.546875 34.949219 51.074219 35.070313 51.601563 L 35.589844 53.53125 C 35.738281 54.066406 36.289063 54.382813 36.824219 54.234375 C 37.359375 54.089844 37.675781 53.535156 37.53125 53 Z "/>
<path style=" fill:#8D6C9F;" d="M 21.75 48.519531 C 21.519531 48.386719 21.246094 48.351563 20.988281 48.417969 C 20.730469 48.488281 20.511719 48.660156 20.378906 48.890625 L 19.378906 50.621094 C 19.132813 51.09375 19.300781 51.679688 19.765625 51.949219 C 20.230469 52.21875 20.824219 52.070313 21.109375 51.621094 L 22.109375 49.890625 C 22.246094 49.660156 22.28125 49.386719 22.214844 49.128906 C 22.148438 48.875 21.980469 48.652344 21.75 48.519531 Z "/>
<path style=" fill:#8D6C9F;" d="M 41.621094 48.890625 C 41.332031 48.4375 40.738281 48.292969 40.277344 48.5625 C 39.8125 48.828125 39.640625 49.414063 39.890625 49.890625 L 40.890625 51.621094 C 41.175781 52.070313 41.769531 52.21875 42.234375 51.949219 C 42.699219 51.679688 42.867188 51.09375 42.621094 50.621094 Z "/>
<path style=" fill:#8D6C9F;" d="M 26.210938 50.371094 C 25.675781 50.230469 25.132813 50.546875 24.988281 51.078125 L 24.46875 53 C 24.363281 53.347656 24.453125 53.730469 24.710938 53.992188 C 24.964844 54.253906 25.34375 54.355469 25.695313 54.257813 C 26.046875 54.160156 26.316406 53.875 26.398438 53.519531 L 26.921875 51.589844 C 27.058594 51.058594 26.742188 50.511719 26.210938 50.371094 Z "/>
<path style=" fill:#8D6C9F;" d="M 46.070313 15.359375 C 46.460938 15.65625 47.007813 15.625 47.363281 15.285156 C 47.71875 14.949219 47.773438 14.40625 47.5 14 C 46.917969 13.398438 46.304688 12.832031 45.660156 12.300781 C 45.386719 12.046875 44.996094 11.964844 44.644531 12.085938 C 44.296875 12.210938 44.042969 12.515625 43.988281 12.886719 C 43.933594 13.253906 44.089844 13.621094 44.390625 13.839844 C 44.976563 14.316406 45.539063 14.824219 46.070313 15.359375 Z "/>
<path style=" fill:#8D6C9F;" d="M 21.820313 11.109375 C 27.886719 8.179688 34.988281 8.324219 40.929688 11.5 C 41.414063 11.761719 42.023438 11.582031 42.285156 11.09375 C 42.546875 10.609375 42.367188 10.003906 41.878906 9.738281 C 35.386719 6.277344 27.628906 6.117188 21 9.308594 C 20.667969 9.460938 20.445313 9.777344 20.414063 10.140625 C 20.382813 10.503906 20.550781 10.851563 20.855469 11.054688 C 21.160156 11.257813 21.546875 11.277344 21.871094 11.109375 Z "/>
</g>
</svg>
