<?xml version="1.0" encoding="UTF-8"?>
<svg xmlns="http://www.w3.org/2000/svg" xmlns:xlink="http://www.w3.org/1999/xlink" viewBox="0 0 64 64" version="1.1">
<g id="surface1">
<path style=" fill:#72CAAF;" d="M 11 5 L 61 5 L 61 39 L 11 39 Z "/>
<path style=" fill:#84D5B5;" d="M 60 19.570313 L 40.570313 39 L 58.789063 39 L 60 37.789063 Z "/>
<path style=" fill:#84D5B5;" d="M 60 7.429688 L 28.429688 39 L 35.710938 39 L 60 14.710938 Z "/>
<path style=" fill:#84D5B5;" d="M 51.5 5 L 17.5 39 L 23.570313 39 L 57.570313 5 Z "/>
<path style=" fill:#CDA1A7;" d="M 11 39 L 61 39 C 62.105469 39 63 39.894531 63 41 L 63 43 C 63 44.105469 62.105469 45 61 45 L 11 45 C 9.894531 45 9 44.105469 9 43 L 9 41 C 9 39.894531 9.894531 39 11 39 Z "/>
<path style=" fill:#FAEFDE;" d="M 16 14 C 16 16.761719 13.761719 19 11 19 C 8.238281 19 6 16.761719 6 14 C 6 11.238281 8.238281 9 11 9 C 13.761719 9 16 11.238281 16 14 Z "/>
<path style=" fill:#85CBF8;" d="M 18 41 L 18 29.628906 L 20.460938 31.289063 C 22.113281 32.40625 24.066406 33 26.058594 33 L 30.5 33 C 31.878906 33 33 31.878906 33 30.5 C 33 29.121094 31.878906 28 30.5 28 L 27.5 28 C 26.441406 27.984375 25.417969 27.636719 24.570313 27 L 20.410156 24 C 19.464844 23.316406 18.410156 22.800781 17.289063 22.480469 L 15.921875 22.089844 C 13.351563 21.355469 10.628906 21.355469 8.058594 22.089844 C 6.0625 22.667969 4.292969 23.859375 3 25.488281 C 1.703125 27.113281 1 29.132813 1 31.210938 L 1 40.5 C 1 41.878906 2.121094 43 3.5 43 C 4.878906 43 6 41.878906 6 40.5 L 6 41 L 5.140625 59.859375 C 5.101563 60.679688 5.402344 61.480469 5.96875 62.074219 C 6.535156 62.664063 7.320313 63 8.140625 63 C 9.738281 63.003906 11.058594 61.746094 11.140625 60.148438 L 12 43 L 12.859375 60.148438 C 12.941406 61.746094 14.261719 63.003906 15.859375 63 C 16.679688 63 17.464844 62.664063 18.03125 62.074219 C 18.597656 61.480469 18.898438 60.679688 18.859375 59.859375 Z "/>
<path style=" fill:#8D6C9F;" d="M 51 12.058594 C 51.550781 12.058594 52 11.613281 52 11.058594 L 52 9.058594 C 52 8.507813 51.550781 8.058594 51 8.058594 C 50.449219 8.058594 50 8.507813 50 9.058594 L 50 11.058594 C 50 11.613281 50.449219 12.058594 51 12.058594 Z "/>
<path style=" fill:#8D6C9F;" d="M 46 12.058594 C 46.550781 12.058594 47 11.613281 47 11.058594 L 47 9.058594 C 47 8.507813 46.550781 8.058594 46 8.058594 C 45.449219 8.058594 45 8.507813 45 9.058594 L 45 11.058594 C 45 11.613281 45.449219 12.058594 46 12.058594 Z "/>
<path style=" fill:#8D6C9F;" d="M 56 12.058594 C 56.550781 12.058594 57 11.613281 57 11.058594 L 57 9.058594 C 57 8.507813 56.550781 8.058594 56 8.058594 C 55.449219 8.058594 55 8.507813 55 9.058594 L 55 11.058594 C 55 11.613281 55.449219 12.058594 56 12.058594 Z "/>
<path style=" fill:#8D6C9F;" d="M 41 8.058594 C 40.449219 8.058594 40 8.507813 40 9.058594 L 40 11.058594 C 40 11.613281 40.449219 12.058594 41 12.058594 C 41.550781 12.058594 42 11.613281 42 11.058594 L 42 9.058594 C 42 8.507813 41.550781 8.058594 41 8.058594 Z "/>
<path style=" fill:#8D6C9F;" d="M 36 8.058594 C 35.449219 8.058594 35 8.507813 35 9.058594 L 35 11.058594 C 35 11.613281 35.449219 12.058594 36 12.058594 C 36.550781 12.058594 37 11.613281 37 11.058594 L 37 9.058594 C 37 8.507813 36.550781 8.058594 36 8.058594 Z "/>
<path style=" fill:#8D6C9F;" d="M 31 8.058594 C 30.449219 8.058594 30 8.507813 30 9.058594 L 30 11.058594 C 30 11.613281 30.449219 12.058594 31 12.058594 C 31.550781 12.058594 32 11.613281 32 11.058594 L 32 9.058594 C 32 8.507813 31.550781 8.058594 31 8.058594 Z "/>
<path style=" fill:#8D6C9F;" d="M 26 8.058594 C 25.449219 8.058594 25 8.507813 25 9.058594 L 25 11.058594 C 25 11.613281 25.449219 12.058594 26 12.058594 C 26.550781 12.058594 27 11.613281 27 11.058594 L 27 9.058594 C 27 8.507813 26.550781 8.058594 26 8.058594 Z "/>
<path style=" fill:#8D6C9F;" d="M 21 8.058594 C 20.449219 8.058594 20 8.507813 20 9.058594 L 20 11.058594 C 20 11.613281 20.449219 12.058594 21 12.058594 C 21.550781 12.058594 22 11.613281 22 11.058594 L 22 9.058594 C 22 8.507813 21.550781 8.058594 21 8.058594 Z "/>
<path style=" fill:#8D6C9F;" d="M 26 38.058594 L 22 38.058594 C 21.449219 38.058594 21 38.507813 21 39.058594 C 21 39.613281 21.449219 40.058594 22 40.058594 L 26 40.058594 C 26.550781 40.058594 27 39.613281 27 39.058594 C 27 38.507813 26.550781 38.058594 26 38.058594 Z "/>
<path style=" fill:#8D6C9F;" d="M 62 38.230469 L 62 7.058594 C 62 5.402344 60.65625 4.058594 59 4.058594 L 13 4.058594 C 11.34375 4.058594 10 5.402344 10 7.058594 L 10 8.058594 C 7.128906 8.5625 5.035156 11.054688 5.035156 13.96875 C 5.035156 16.882813 7.128906 19.378906 10 19.878906 L 10 20.679688 C 9.253906 20.777344 8.515625 20.933594 7.789063 21.140625 C 5.589844 21.765625 3.644531 23.0625 2.21875 24.851563 C 0.78125 26.65625 0 28.898438 0 31.210938 L 0 40.5 C 0 41.675781 0.589844 42.777344 1.574219 43.425781 C 2.554688 44.074219 3.796875 44.183594 4.878906 43.71875 L 4.148438 59.820313 C 4.050781 61.855469 5.5 63.636719 7.511719 63.960938 C 9.523438 64.285156 11.457031 63.042969 12 61.078125 C 12.527344 63.066406 14.472656 64.332031 16.5 64.007813 C 18.53125 63.679688 19.980469 61.871094 19.859375 59.820313 L 19.230469 46.058594 L 61 46.058594 C 62.65625 46.058594 64 44.71875 64 43.058594 L 64 41.058594 C 64 39.789063 63.199219 38.652344 62 38.230469 Z M 6.710938 14 C 6.710938 11.628906 8.628906 9.710938 11 9.710938 C 13.371094 9.710938 15.289063 11.628906 15.289063 14 C 15.289063 16.371094 13.371094 18.289063 11 18.289063 C 8.632813 18.285156 6.714844 16.367188 6.710938 14 Z M 17 41 L 17.859375 59.859375 C 17.902344 60.445313 17.6875 61.023438 17.265625 61.4375 C 16.847656 61.847656 16.265625 62.054688 15.679688 62 C 14.65625 61.882813 13.878906 61.027344 13.851563 60 L 13 43 C 13 42.449219 12.550781 42 12 42 C 11.449219 42 11 42.449219 11 43 L 10.148438 60 C 10.109375 61.019531 9.34375 61.863281 8.328125 62 C 7.753906 62.054688 7.179688 61.859375 6.761719 61.460938 C 6.339844 61.058594 6.113281 60.5 6.140625 59.921875 L 7 41 L 7 29.671875 C 7 29.117188 6.550781 28.671875 6 28.671875 C 5.449219 28.671875 5 29.117188 5 29.671875 L 5 40.5 C 5 41.328125 4.328125 42 3.5 42 C 2.671875 42 2 41.328125 2 40.5 L 2 31.5 C 1.960938 29.507813 2.617188 27.5625 3.859375 26 C 5.019531 24.585938 6.582031 23.5625 8.339844 23.058594 C 10.730469 22.378906 13.261719 22.378906 15.648438 23.058594 L 16.050781 23.179688 C 17.703125 23.652344 19.257813 24.410156 20.648438 25.421875 L 24 27.859375 C 25.023438 28.601563 26.257813 29 27.519531 29 L 30.601563 29 L 30.320313 29.25 C 29.957031 29.632813 29.949219 30.230469 30.304688 30.617188 C 30.664063 31.007813 31.257813 31.050781 31.671875 30.71875 L 31.988281 30.429688 C 31.988281 30.429688 31.988281 30.429688 31.988281 30.480469 C 31.996094 30.878906 31.839844 31.265625 31.5625 31.550781 C 31.28125 31.835938 30.898438 31.996094 30.5 32 L 26.058594 32 C 24.277344 31.992188 22.539063 31.457031 21.058594 30.460938 L 18.558594 28.800781 C 18.253906 28.59375 17.855469 28.570313 17.53125 28.746094 C 17.203125 28.917969 17 29.261719 17 29.628906 Z M 62 43 C 62 43.550781 61.550781 44 61 44 L 19.140625 44 L 19 41 L 19 31.511719 L 19.910156 32.121094 C 21.726563 33.34375 23.867188 34 26.058594 34 L 30.351563 34 C 31.855469 34.019531 33.214844 33.109375 33.769531 31.710938 C 34.101563 30.824219 34.046875 29.84375 33.621094 29 L 43.671875 19.78125 C 43.960938 19.546875 44.097656 19.171875 44.023438 18.804688 C 43.949219 18.441406 43.679688 18.144531 43.320313 18.042969 C 42.964844 17.9375 42.578125 18.039063 42.320313 18.308594 L 32.261719 27.488281 C 31.726563 27.171875 31.121094 27.003906 30.5 27 L 27.5 27 C 26.65625 27 25.832031 26.734375 25.148438 26.238281 L 22 23.929688 C 20.320313 22.710938 18.4375 21.792969 16.441406 21.21875 L 16.21875 21.160156 C 14.847656 20.765625 13.425781 20.570313 12 20.570313 L 12 19.910156 C 13.773438 19.605469 15.316406 18.523438 16.207031 16.960938 C 17.09375 15.398438 17.234375 13.519531 16.589844 11.839844 C 16.839844 11.65625 16.992188 11.371094 17 11.058594 L 17 9.058594 C 17 8.507813 16.550781 8.058594 16 8.058594 C 15.449219 8.058594 15 8.507813 15 9.058594 L 15 9.539063 C 14.15625 8.78125 13.117188 8.28125 12 8.089844 L 12 7.089844 C 12 6.539063 12.449219 6.089844 13 6.089844 L 59 6.089844 C 59.550781 6.089844 60 6.539063 60 7.089844 L 60 38.089844 L 30 38.089844 C 29.449219 38.089844 29 38.539063 29 39.089844 C 29 39.640625 29.449219 40.089844 30 40.089844 L 61 40.089844 C 61.550781 40.089844 62 40.539063 62 41.089844 Z "/>
</g>
</svg>
