<?xml version="1.0" encoding="UTF-8"?>
<svg xmlns="http://www.w3.org/2000/svg" xmlns:xlink="http://www.w3.org/1999/xlink" viewBox="0 0 64 64" version="1.1">
<g id="surface1">
<path style=" fill:#ED7899;" d="M 56.441406 11.351563 C 50.359375 5.289063 40.519531 5.289063 34.441406 11.351563 L 31.710938 14 L 29 11.351563 C 22.917969 5.289063 13.082031 5.289063 7 11.351563 C 0.9375 17.429688 0.9375 27.269531 7 33.351563 L 31.421875 57.820313 L 31.710938 57.53125 L 32 57.820313 L 56.441406 33.378906 C 62.523438 27.296875 62.523438 17.433594 56.441406 11.351563 Z "/>
<path style=" fill:#F283A5;" d="M 18.558594 17.558594 L 23.5 22.5 L 31.628906 14.371094 L 26.691406 9.429688 C 24.445313 7.1875 20.804688 7.1875 18.558594 9.429688 C 16.316406 11.675781 16.316406 15.316406 18.558594 17.558594 Z "/>
<path style=" fill:#E0678F;" d="M 49.46875 24.589844 L 28.089844 46 C 26.964844 47.125 26.332031 48.652344 26.332031 50.246094 C 26.332031 51.835938 26.964844 53.363281 28.089844 54.488281 L 31.621094 58 L 57.25 32.359375 C 59.398438 30.210938 59.398438 26.726563 57.25 24.578125 C 55.097656 22.433594 51.617188 22.4375 49.46875 24.589844 Z "/>
<path style=" fill:#FAEFDE;" d="M 50 29 C 49.289063 29.003906 48.636719 29.386719 48.28125 30 L 37 30 C 36.625 30 36.28125 30.214844 36.109375 30.550781 L 35.109375 32.5 L 32.921875 26.648438 C 32.765625 26.246094 32.371094 25.984375 31.9375 26.003906 C 31.503906 26.023438 31.132813 26.320313 31.019531 26.738281 L 28.320313 36.929688 L 26 19.859375 C 26.03125 19.308594 25.613281 18.832031 25.058594 18.800781 C 24.507813 18.765625 24.03125 19.1875 24 19.738281 L 20.800781 31.738281 L 18.898438 26.671875 C 18.761719 26.296875 18.417969 26.042969 18.019531 26.019531 C 17.621094 25.996094 17.25 26.214844 17.070313 26.570313 L 15.378906 30 L 6 30 C 5.449219 30 5 30.449219 5 31 C 5 31.550781 5.449219 32 6 32 L 16 32 C 16.375 32 16.71875 31.785156 16.890625 31.449219 L 17.890625 29.5 L 20.078125 35.351563 C 20.222656 35.734375 20.589844 35.992188 21 36 C 21.433594 35.980469 21.808594 35.679688 21.921875 35.261719 L 24.640625 25.070313 L 27 42.140625 C 27.066406 42.613281 27.453125 42.972656 27.929688 43 L 28 43 C 28.464844 43.015625 28.878906 42.710938 29 42.261719 L 32.199219 30.261719 L 34.101563 35.328125 C 34.238281 35.703125 34.585938 35.957031 34.980469 35.980469 C 35.378906 36 35.75 35.785156 35.929688 35.429688 L 37.621094 32 L 48.28125 32 C 48.765625 32.84375 49.785156 33.210938 50.699219 32.878906 C 51.613281 32.542969 52.152344 31.601563 51.980469 30.644531 C 51.808594 29.6875 50.972656 28.996094 50 29 Z "/>
<path style=" fill:#8D6C9F;" d="M 57.148438 10.851563 C 50.679688 4.398438 40.210938 4.398438 33.738281 10.851563 L 31.949219 12.640625 L 30.160156 10.851563 C 26.007813 6.53125 19.84375 4.792969 14.042969 6.304688 C 8.246094 7.816406 3.714844 12.34375 2.203125 18.140625 C 0.6875 23.941406 2.421875 30.105469 6.738281 34.261719 L 26.460938 54 C 26.476563 54.03125 26.5 54.0625 26.519531 54.089844 L 27.929688 55.5 L 28.019531 55.558594 L 29.828125 57.371094 C 31 58.539063 32.898438 58.539063 34.070313 57.371094 L 57.148438 34.261719 C 63.609375 27.792969 63.609375 17.316406 57.148438 10.851563 Z M 55.738281 32.851563 L 32.660156 55.941406 C 32.472656 56.128906 32.214844 56.234375 31.949219 56.234375 C 31.683594 56.234375 31.429688 56.128906 31.238281 55.941406 L 8.148438 32.851563 C 2.558594 27.148438 2.601563 18.003906 8.25 12.359375 C 13.894531 6.710938 23.039063 6.667969 28.738281 12.261719 L 30.53125 14.050781 L 28.289063 16.289063 C 28.003906 16.535156 27.878906 16.917969 27.96875 17.285156 C 28.054688 17.648438 28.339844 17.933594 28.707031 18.023438 C 29.070313 18.109375 29.457031 17.984375 29.699219 17.699219 L 33.761719 13.640625 L 35.140625 12.261719 C 40.824219 6.570313 50.046875 6.570313 55.734375 12.253906 C 61.421875 17.941406 61.425781 27.160156 55.738281 32.851563 Z "/>
<path style=" fill:#8D6C9F;" d="M 31.460938 49.121094 C 31.0625 48.78125 30.472656 48.804688 30.101563 49.171875 C 29.734375 49.542969 29.710938 50.132813 30.050781 50.53125 L 31.460938 51.941406 C 31.855469 52.28125 32.449219 52.257813 32.816406 51.886719 C 33.1875 51.519531 33.210938 50.925781 32.871094 50.53125 Z "/>
<path style=" fill:#8D6C9F;" d="M 35 45.589844 C 34.601563 45.25 34.011719 45.273438 33.640625 45.640625 C 33.273438 46.011719 33.25 46.601563 33.589844 47 L 35 48.410156 C 35.398438 48.75 35.988281 48.726563 36.359375 48.359375 C 36.726563 47.988281 36.75 47.398438 36.410156 47 Z "/>
<path style=" fill:#8D6C9F;" d="M 38.539063 42.050781 C 38.144531 41.710938 37.550781 41.734375 37.183594 42.101563 C 36.8125 42.472656 36.789063 43.0625 37.128906 43.460938 L 38.539063 44.871094 C 38.9375 45.210938 39.527344 45.1875 39.898438 44.816406 C 40.265625 44.449219 40.289063 43.855469 39.949219 43.460938 Z "/>
<path style=" fill:#8D6C9F;" d="M 42.070313 38.511719 C 41.671875 38.171875 41.082031 38.191406 40.710938 38.5625 C 40.34375 38.933594 40.320313 39.523438 40.660156 39.921875 L 42.070313 41.328125 C 42.464844 41.667969 43.058594 41.648438 43.425781 41.277344 C 43.796875 40.90625 43.820313 40.316406 43.480469 39.921875 Z "/>
<path style=" fill:#8D6C9F;" d="M 45.609375 35 C 45.214844 34.660156 44.621094 34.683594 44.253906 35.050781 C 43.882813 35.421875 43.859375 36.011719 44.199219 36.410156 L 45.609375 37.820313 C 46.011719 38.15625 46.601563 38.125 46.96875 37.75 C 47.332031 37.375 47.347656 36.78125 47 36.390625 Z "/>
</g>
</svg>
