<?xml version="1.0" encoding="UTF-8"?>
<svg xmlns="http://www.w3.org/2000/svg" xmlns:xlink="http://www.w3.org/1999/xlink" viewBox="0 0 64 64" version="1.1">
<g id="surface1">
<path style=" fill:#FAEFDE;" d="M 7 23 L 57 23 L 57 51 C 57 54.3125 54.3125 57 51 57 L 13 57 C 9.6875 57 7 54.3125 7 51 Z "/>
<path style=" fill:#EFD8BE;" d="M 6.890625 51 L 57 51 L 57 52.230469 C 57 54.992188 54.761719 57.230469 52 57.230469 L 11.890625 57.230469 C 9.128906 57.230469 6.890625 54.992188 6.890625 52.230469 Z "/>
<path style=" fill:#CDA1A7;" d="M 13 7 L 51 7 C 54.3125 7 57 9.6875 57 13 L 57 23 L 7 23 L 7 13 C 7 9.6875 9.6875 7 13 7 Z "/>
<path style=" fill:#BBDEF9;" d="M 45 11 L 53 11 L 53 17 L 45 17 Z "/>
<path style=" fill:#FFEB9B;" d="M 45 32 C 45 39.179688 39.179688 45 32 45 C 24.820313 45 19 39.179688 19 32 C 19 24.820313 24.820313 19 32 19 C 39.179688 19 45 24.820313 45 32 Z "/>
<path style=" fill:#BBDEF9;" d="M 42 32 C 42 37.523438 37.523438 42 32 42 C 26.476563 42 22 37.523438 22 32 C 22 26.476563 26.476563 22 32 22 C 37.523438 22 42 26.476563 42 32 Z "/>
<path style=" fill:#D2EDFF;" d="M 37 32 C 37 34.761719 34.761719 37 32 37 C 29.238281 37 27 34.761719 27 32 C 27 29.238281 29.238281 27 32 27 C 34.761719 27 37 29.238281 37 32 Z "/>
<path style=" fill:#F3F3F3;" d="M 33 30 C 33 31.65625 31.65625 33 30 33 C 28.34375 33 27 31.65625 27 30 C 27 28.34375 28.34375 27 30 27 C 31.65625 27 33 28.34375 33 30 Z "/>
<path style=" fill:#F3F3F3;" d="M 37 35.5 C 37 36.328125 36.328125 37 35.5 37 C 34.671875 37 34 36.328125 34 35.5 C 34 34.671875 34.671875 34 35.5 34 C 36.328125 34 37 34.671875 37 35.5 Z "/>
<path style=" fill:#8D6C9F;" d="M 51 6 L 13 6 C 9.132813 6 6 9.132813 6 13 L 6 51 C 6 54.867188 9.132813 58 13 58 L 51 58 C 54.867188 58 58 54.867188 58 51 L 58 13 C 58 9.132813 54.867188 6 51 6 Z M 13 8 L 14 8 L 14 11 C 14 11.550781 14.449219 12 15 12 C 15.550781 12 16 11.550781 16 11 L 16 8 L 51 8 C 53.761719 8 56 10.238281 56 13 L 56 22 L 42 22 C 41.917969 22.011719 41.832031 22.011719 41.75 22 C 36.316406 16.710938 27.65625 16.710938 22.21875 22 C 22.148438 22.007813 22.074219 22.007813 22 22 L 8 22 L 8 13 C 8 10.238281 10.238281 8 13 8 Z M 32 20 C 38.628906 20 44 25.371094 44 32 C 44 38.628906 38.628906 44 32 44 C 25.371094 44 20 38.628906 20 32 C 20 25.371094 25.371094 20 32 20 Z M 51 56 L 13 56 C 10.238281 56 8 53.761719 8 51 L 8 24 L 20.53125 24 C 16.460938 29.820313 17.394531 37.761719 22.699219 42.480469 C 28.007813 47.199219 36.003906 47.199219 41.308594 42.480469 C 46.613281 37.761719 47.546875 29.820313 43.480469 24 L 56 24 L 56 51 C 56 53.761719 53.761719 56 51 56 Z "/>
<path style=" fill:#8D6C9F;" d="M 32 42 C 37.523438 42 42 37.523438 42 32 C 42 26.476563 37.523438 22 32 22 C 26.476563 22 22 26.476563 22 32 C 22 37.523438 26.476563 42 32 42 Z M 32 24 C 36.417969 24 40 27.582031 40 32 C 40 36.417969 36.417969 40 32 40 C 27.582031 40 24 36.417969 24 32 C 24 27.582031 27.582031 24 32 24 Z "/>
<path style=" fill:#8D6C9F;" d="M 47 18 L 51 18 C 52.65625 18 54 16.65625 54 15 L 54 13 C 54 11.34375 52.65625 10 51 10 L 47 10 C 45.34375 10 44 11.34375 44 13 L 44 15 C 44 16.65625 45.34375 18 47 18 Z M 46 13 C 46 12.449219 46.449219 12 47 12 L 51 12 C 51.550781 12 52 12.449219 52 13 L 52 15 C 52 15.550781 51.550781 16 51 16 L 47 16 C 46.449219 16 46 15.550781 46 15 Z "/>
<path style=" fill:#8D6C9F;" d="M 12 49 C 11.449219 49 11 49.449219 11 50 L 11 52 C 11 52.550781 11.449219 53 12 53 C 12.550781 53 13 52.550781 13 52 L 13 50 C 13 49.449219 12.550781 49 12 49 Z "/>
<path style=" fill:#8D6C9F;" d="M 17 49 C 16.449219 49 16 49.449219 16 50 L 16 52 C 16 52.550781 16.449219 53 17 53 C 17.550781 53 18 52.550781 18 52 L 18 50 C 18 49.449219 17.550781 49 17 49 Z "/>
<path style=" fill:#8D6C9F;" d="M 22 49 C 21.449219 49 21 49.449219 21 50 L 21 52 C 21 52.550781 21.449219 53 22 53 C 22.550781 53 23 52.550781 23 52 L 23 50 C 23 49.449219 22.550781 49 22 49 Z "/>
<path style=" fill:#8D6C9F;" d="M 27 49 C 26.449219 49 26 49.449219 26 50 L 26 52 C 26 52.550781 26.449219 53 27 53 C 27.550781 53 28 52.550781 28 52 L 28 50 C 28 49.449219 27.550781 49 27 49 Z "/>
<path style=" fill:#8D6C9F;" d="M 37 49 C 36.449219 49 36 49.449219 36 50 L 36 52 C 36 52.550781 36.449219 53 37 53 C 37.550781 53 38 52.550781 38 52 L 38 50 C 38 49.449219 37.550781 49 37 49 Z "/>
<path style=" fill:#8D6C9F;" d="M 32 49 C 31.449219 49 31 49.449219 31 50 L 31 52 C 31 52.550781 31.449219 53 32 53 C 32.550781 53 33 52.550781 33 52 L 33 50 C 33 49.449219 32.550781 49 32 49 Z "/>
<path style=" fill:#8D6C9F;" d="M 42 49 C 41.449219 49 41 49.449219 41 50 L 41 52 C 41 52.550781 41.449219 53 42 53 C 42.550781 53 43 52.550781 43 52 L 43 50 C 43 49.449219 42.550781 49 42 49 Z "/>
<path style=" fill:#8D6C9F;" d="M 47 49 C 46.449219 49 46 49.449219 46 50 L 46 52 C 46 52.550781 46.449219 53 47 53 C 47.550781 53 48 52.550781 48 52 L 48 50 C 48 49.449219 47.550781 49 47 49 Z "/>
<path style=" fill:#8D6C9F;" d="M 52 49 C 51.449219 49 51 49.449219 51 50 L 51 52 C 51 52.550781 51.449219 53 52 53 C 52.550781 53 53 52.550781 53 52 L 53 50 C 53 49.449219 52.550781 49 52 49 Z "/>
<path style=" fill:#8D6C9F;" d="M 15 20 C 15.550781 20 16 19.550781 16 19 L 16 15 C 16 14.449219 15.550781 14 15 14 C 14.449219 14 14 14.449219 14 15 L 14 19 C 14 19.550781 14.449219 20 15 20 Z "/>
</g>
</svg>
