<?xml version="1.0" encoding="UTF-8"?>
<svg xmlns="http://www.w3.org/2000/svg" xmlns:xlink="http://www.w3.org/1999/xlink" viewBox="0 0 64 64" version="1.1">
<g id="surface1">
<path style=" fill:#FAEFDE;" d="M 35.441406 29.28125 C 35.21875 29.28125 34.53125 28.710938 34.171875 27.351563 C 33.808594 25.988281 34.171875 25.070313 34.300781 25.03125 C 34.300781 25.03125 35.621094 24.800781 35.640625 24.539063 C 35.660156 24.15625 35.703125 23.777344 35.769531 23.398438 C 35.808594 22.996094 35.789063 22.589844 35.710938 22.191406 C 35.527344 20.933594 35.496094 19.664063 35.621094 18.398438 C 35.851563 16.050781 37.230469 14.648438 39.320313 14.648438 C 39.480469 14.648438 39.632813 14.597656 39.761719 14.5 C 41.171875 13.628906 42.800781 13.171875 44.460938 13.179688 L 45.199219 13.179688 C 49.671875 13.179688 52.890625 15.460938 54.199219 19.488281 C 53.691406 19.429688 53.859375 19.789063 53.5 20.140625 C 53.140625 20.488281 52.261719 20.628906 52.589844 21.539063 C 52.980469 22.496094 53.207031 23.507813 53.25 24.539063 C 53.25 24.800781 54.570313 24.339844 54.578125 24.339844 C 54.953125 25.296875 55.003906 26.351563 54.71875 27.339844 C 54.359375 28.699219 53.660156 29.269531 53.449219 29.269531 C 53.125 29.277344 52.839844 29.488281 52.738281 29.800781 C 52.117188 31.914063 51.042969 33.863281 49.589844 35.519531 C 52.671875 37.25 43.761719 39.121094 43.339844 39.121094 C 39.53125 39.121094 37.390625 33.96875 36.148438 29.800781 C 36.054688 29.488281 35.765625 29.277344 35.441406 29.28125 Z "/>
<path style=" fill:#CDA1A7;" d="M 36.359375 21.398438 C 38.289063 21.269531 39.957031 20 40.589844 18.171875 C 42.53125 18.820313 43.171875 20.75 52.21875 20.109375 C 53.121094 20.050781 53.21875 20.359375 53.511719 20.109375 C 53.800781 19.859375 53.039063 18.808594 53.511719 18.859375 C 52.417969 15.207031 48.957031 12.78125 45.148438 13 L 44.46875 13 C 42.929688 12.996094 41.421875 13.421875 40.109375 14.230469 C 39.992188 14.320313 39.847656 14.371094 39.699219 14.371094 C 37.769531 14.371094 36.488281 15.671875 36.269531 17.851563 C 36.15625 19.023438 36.1875 20.203125 36.359375 21.371094 Z "/>
<path style=" fill:#C2CDE7;" d="M 63 47.730469 L 63 50.121094 C 63 51.160156 62.160156 52 61.121094 52 L 19 52 C 17.898438 52 17 52.101563 17 51 L 17 48.730469 C 16.996094 45.105469 18.894531 41.742188 22 39.871094 L 31.449219 34.179688 C 33.839844 37.179688 37 39.351563 40.5 39.351563 C 44 39.351563 47.160156 37.199219 49.550781 34.179688 L 59 39.878906 C 62.101563 41.75 63 44.109375 63 47.730469 Z "/>
<path style=" fill:#FAEFDE;" d="M 11.441406 29.28125 C 11.21875 29.28125 10.53125 28.710938 10.171875 27.351563 C 9.808594 25.988281 10.171875 25.070313 10.300781 25.03125 C 10.300781 25.03125 11.621094 24.800781 11.640625 24.539063 C 11.660156 24.15625 11.703125 23.777344 11.769531 23.398438 C 11.808594 22.996094 11.789063 22.589844 11.710938 22.191406 C 11.527344 20.933594 11.496094 19.664063 11.621094 18.398438 C 11.851563 16.050781 13.230469 14.648438 15.320313 14.648438 C 15.480469 14.648438 15.632813 14.597656 15.761719 14.5 C 17.171875 13.628906 18.800781 13.171875 20.460938 13.179688 L 21.199219 13.179688 C 25.671875 13.179688 28.890625 15.460938 30.199219 19.488281 C 29.691406 19.429688 29.859375 19.789063 29.5 20.140625 C 29.140625 20.488281 28.261719 20.628906 28.589844 21.539063 C 28.980469 22.496094 29.207031 23.507813 29.25 24.539063 C 29.25 24.800781 30.570313 24.339844 30.578125 24.339844 C 30.953125 25.296875 31.003906 26.351563 30.71875 27.339844 C 30.359375 28.699219 29.660156 29.269531 29.449219 29.269531 C 29.125 29.277344 28.839844 29.488281 28.738281 29.800781 C 28.117188 31.914063 27.042969 33.863281 25.589844 35.519531 C 28.671875 37.25 19.761719 39.121094 19.339844 39.121094 C 15.53125 39.121094 13.390625 33.96875 12.148438 29.800781 C 12.054688 29.488281 11.765625 29.277344 11.441406 29.28125 Z "/>
<path style=" fill:#ACB7D0;" d="M 59 47 L 21 47 C 18.789063 47 17 48.789063 17 51 C 17 51.550781 17.449219 52 18 52 L 62 52 C 62.550781 52 63 51.550781 63 51 C 63 48.789063 61.210938 47 59 47 Z "/>
<path style=" fill:#C2CDE7;" d="M 47 48.148438 L 47 50.539063 C 47 51.578125 46.160156 52.421875 45.121094 52.421875 L 3 52.421875 C 1.894531 52.421875 1 51.523438 1 50.421875 L 1 48.148438 C 1 44.53125 1.898438 41.148438 5 39.289063 L 14.449219 33.601563 C 16.839844 36.601563 20 38.769531 23.5 38.769531 C 27 38.769531 30.160156 36.621094 32.550781 33.601563 L 42 39.289063 C 45.105469 41.164063 47.003906 44.523438 47 48.148438 Z "/>
<path style=" fill:#CDA1A7;" d="M 12.359375 21.398438 C 14.289063 21.269531 15.957031 20 16.589844 18.171875 C 18.53125 18.820313 19.171875 20.75 28.21875 20.109375 C 29.121094 20.050781 29.21875 20.359375 29.511719 20.109375 C 29.800781 19.859375 29.039063 18.808594 29.511719 18.859375 C 28.417969 15.207031 24.957031 12.78125 21.148438 13 L 20.46875 13 C 18.929688 12.996094 17.421875 13.421875 16.109375 14.230469 C 15.992188 14.320313 15.847656 14.371094 15.699219 14.371094 C 13.769531 14.371094 12.488281 15.671875 12.269531 17.851563 C 12.15625 19.023438 12.1875 20.203125 12.359375 21.371094 Z "/>
<path style=" fill:#ACB7D0;" d="M 43 47 L 5 47 C 2.789063 47 1 48.789063 1 51 C 1 51.550781 1.449219 52 2 52 L 46 52 C 46.550781 52 47 51.550781 47 51 C 47 48.789063 45.210938 47 43 47 Z "/>
<path style=" fill:#8B8E98;" d="M 55 48.441406 L 55 56.441406 L 9 56.441406 L 9 48.441406 C 9 44.890625 10.859375 41.601563 13.898438 39.769531 L 23.140625 34.199219 C 25.480469 37.199219 28.570313 39.261719 32 39.261719 C 35.429688 39.261719 38.519531 37.148438 40.859375 34.199219 L 50.101563 39.769531 C 53.140625 41.601563 55 44.890625 55 48.441406 Z "/>
<path style=" fill:#989BA3;" d="M 41.449219 39.351563 L 32 44.070313 L 22.550781 39.339844 C 21.757813 38.945313 21.203125 38.191406 21.058594 37.3125 C 20.914063 36.4375 21.203125 35.546875 21.828125 34.921875 L 21.878906 34.871094 L 42.121094 34.871094 L 42.171875 34.921875 C 42.800781 35.546875 43.089844 36.441406 42.949219 37.320313 C 42.804688 38.199219 42.246094 38.953125 41.449219 39.351563 Z "/>
<path style=" fill:#FAEFDE;" d="M 20.789063 27 C 20.519531 27 19.660156 26.289063 19.199219 24.601563 C 18.738281 22.910156 19.199219 21.769531 19.371094 21.710938 C 19.371094 21.710938 21.019531 21.421875 21.03125 21.089844 C 21.054688 20.617188 21.105469 20.144531 21.191406 19.679688 C 21.238281 19.179688 21.214844 18.675781 21.121094 18.179688 C 20.890625 16.628906 20.851563 15.058594 21 13.5 C 21.289063 10.578125 23 8.828125 25.601563 8.828125 C 25.796875 8.832031 25.992188 8.769531 26.148438 8.648438 C 27.90625 7.566406 29.933594 6.992188 32 7 L 32.921875 7 C 38.480469 7 42.5 9.839844 44.140625 14.859375 C 43.511719 14.789063 43.71875 15.230469 43.269531 15.660156 C 42.820313 16.089844 41.71875 16.269531 42.140625 17.398438 C 42.640625 18.585938 42.933594 19.851563 43 21.140625 C 43 21.46875 44.640625 20.890625 44.660156 20.890625 C 45.128906 22.089844 45.191406 23.414063 44.828125 24.648438 C 44.378906 26.339844 43.511719 27.050781 43.238281 27.050781 C 42.835938 27.058594 42.480469 27.324219 42.359375 27.710938 C 40.78125 32.890625 36.738281 38.140625 32 38.140625 C 27.261719 38.140625 23.21875 32.890625 21.671875 27.699219 C 21.570313 27.292969 21.207031 27.007813 20.789063 27 Z "/>
<path style=" fill:#CDA1A7;" d="M 21.128906 18.269531 C 23.71875 18.09375 25.949219 16.390625 26.800781 13.941406 C 29.398438 14.808594 30.269531 17.410156 42.398438 16.539063 C 43.601563 16.449219 43.78125 16.878906 44.128906 16.539063 C 44.480469 16.199219 43.5 14.800781 44.128906 14.871094 C 42.488281 9.839844 38.480469 7 32.921875 7 L 32 7 C 29.933594 6.992188 27.90625 7.566406 26.148438 8.648438 C 25.992188 8.769531 25.796875 8.832031 25.601563 8.828125 C 23 8.828125 21.300781 10.578125 21 13.5 C 20.847656 15.074219 20.886719 16.65625 21.121094 18.21875 Z "/>
<path style=" fill:#7E8189;" d="M 51 52 L 13 52 C 10.789063 52 9 53.789063 9 56 C 9 56.550781 9.449219 57 10 57 L 54 57 C 54.550781 57 55 56.550781 55 56 C 55 53.789063 53.210938 52 51 52 Z "/>
<path style=" fill:#7E8189;" d="M 21.191406 12.730469 L 20.53125 17.058594 C 20.488281 17.308594 20.558594 17.5625 20.722656 17.757813 C 20.886719 17.949219 21.128906 18.058594 21.378906 18.058594 L 25.199219 18.058594 C 26.289063 18.050781 27.367188 18.300781 28.339844 18.789063 L 31.261719 20.25 C 31.746094 20.492188 32.316406 20.492188 32.800781 20.25 L 35.71875 18.789063 C 36.6875 18.28125 37.757813 18.011719 38.851563 18 L 42.941406 18 C 43.191406 18 43.433594 17.890625 43.597656 17.695313 C 43.761719 17.503906 43.832031 17.25 43.789063 17 L 43.089844 12.421875 "/>
<path style=" fill:#8B8E98;" d="M 31.160156 15.191406 L 16.691406 10.191406 C 16.375 10.085938 16.164063 9.789063 16.164063 9.460938 C 16.164063 9.128906 16.375 8.835938 16.691406 8.730469 L 31.160156 3.730469 C 31.808594 3.507813 32.511719 3.507813 33.160156 3.730469 L 47.628906 8.730469 C 47.945313 8.835938 48.15625 9.128906 48.15625 9.460938 C 48.15625 9.789063 47.945313 10.085938 47.628906 10.191406 L 33.160156 15.191406 C 32.511719 15.410156 31.808594 15.410156 31.160156 15.191406 Z "/>
<path style=" fill:#8D6C9F;" d="M 59.339844 38.558594 L 51.570313 33.558594 C 52.367188 32.390625 53 31.113281 53.449219 29.769531 C 54.488281 29.164063 55.21875 28.140625 55.449219 26.960938 C 56 24.960938 55.449219 23.160156 54.148438 22.808594 L 54.058594 22.808594 C 53.96875 22.257813 53.828125 21.714844 53.640625 21.191406 L 53.929688 21.289063 C 54.269531 21.421875 54.648438 21.359375 54.929688 21.128906 C 55.222656 20.886719 55.355469 20.5 55.269531 20.128906 C 54.46875 15.410156 50.367188 11.96875 45.578125 12 L 48 11.171875 C 48.714844 10.925781 49.199219 10.253906 49.199219 9.496094 C 49.199219 8.738281 48.714844 8.066406 48 7.820313 L 33.53125 2.820313 C 32.667969 2.523438 31.730469 2.523438 30.871094 2.820313 L 16.398438 7.820313 C 15.683594 8.066406 15.203125 8.738281 15.203125 9.496094 C 15.203125 10.253906 15.683594 10.925781 16.398438 11.171875 L 19.078125 12.089844 C 17.824219 12.253906 16.617188 12.671875 15.53125 13.320313 C 12.949219 13.460938 11.128906 15.320313 10.839844 18.21875 C 10.710938 19.476563 10.730469 20.746094 10.898438 22 C 10.898438 22.238281 10.96875 22.53125 10.960938 22.589844 L 10.960938 22.730469 L 10.871094 22.730469 C 10.089844 22.992188 9.53125 23.683594 9.441406 24.5 C 9.300781 25.296875 9.347656 26.113281 9.570313 26.890625 C 9.804688 28.070313 10.53125 29.09375 11.570313 29.699219 C 11.964844 30.859375 12.492188 31.972656 13.140625 33.011719 L 4.578125 38.558594 C 1.714844 40.410156 -0.0117188 43.589844 0 47 L 0 50.210938 C 0.0117188 51.753906 1.265625 53 2.808594 53 L 8 53 L 8 55 C 8 56.65625 9.34375 58 11 58 L 53 58 C 54.65625 58 56 56.65625 56 55 L 56 53 L 61.109375 53 C 62.660156 53 63.921875 51.742188 63.921875 50.191406 L 63.921875 47 C 63.933594 43.589844 62.207031 40.410156 59.339844 38.558594 Z M 37.800781 34.199219 C 36.363281 35.945313 34.257813 37.007813 32 37.128906 C 29.742188 36.972656 27.652344 35.886719 26.230469 34.128906 C 25.789063 33.644531 25.378906 33.132813 25 32.601563 C 23.882813 31.015625 23.027344 29.257813 22.46875 27.398438 C 22.3125 26.980469 21.917969 26.703125 21.46875 26.691406 C 21.238281 26.691406 20.46875 25.988281 20.109375 24.53125 C 19.8125 23.710938 19.8125 22.808594 20.109375 21.988281 C 20.171875 22.007813 20.226563 22.035156 20.28125 22.070313 C 20.589844 22.25 20.96875 22.25 21.28125 22.070313 C 21.597656 21.90625 21.800781 21.585938 21.820313 21.230469 L 21.820313 20.621094 C 21.820313 20.238281 21.820313 19.550781 21.878906 19 L 25.148438 19 C 26.078125 19 26.996094 19.214844 27.828125 19.621094 L 30.75 21.078125 C 31.519531 21.464844 32.421875 21.464844 33.191406 21.078125 L 36.109375 19.621094 C 36.957031 19.195313 37.894531 18.980469 38.839844 19 L 42.121094 19 C 42.121094 19.539063 42.121094 20.199219 42.179688 20.578125 L 42.179688 21.238281 C 42.199219 21.597656 42.402344 21.917969 42.71875 22.078125 C 43.03125 22.257813 43.410156 22.257813 43.71875 22.078125 L 43.839844 22.011719 C 44.1875 22.8125 44.207031 23.71875 43.898438 24.539063 C 43.511719 26 42.769531 26.679688 42.539063 26.699219 C 42.082031 26.679688 41.671875 26.972656 41.539063 27.410156 C 40.984375 29.277344 40.132813 31.042969 39.019531 32.640625 C 38.652344 33.191406 38.246094 33.710938 37.800781 34.199219 Z M 42.179688 13.199219 L 42.78125 17.101563 L 38.859375 17.101563 C 37.617188 17.101563 36.386719 17.386719 35.269531 17.929688 L 32.351563 19.390625 C 32.144531 19.492188 31.90625 19.492188 31.699219 19.390625 L 28.78125 17.929688 C 27.671875 17.347656 26.441406 17.03125 25.191406 17 L 21.539063 17 L 22.140625 13.101563 L 30.839844 16.101563 C 31.703125 16.394531 32.636719 16.394531 33.5 16.101563 Z M 31.488281 4.738281 C 31.929688 4.589844 32.410156 4.589844 32.851563 4.738281 L 46.691406 9.488281 L 32.851563 14.238281 C 32.410156 14.390625 31.929688 14.390625 31.488281 14.238281 L 17.640625 9.488281 Z M 2.808594 51 C 2.363281 51 2 50.636719 2 50.191406 L 2 47 C 1.996094 44.273438 3.378906 41.734375 5.671875 40.261719 L 14.28125 34.691406 C 14.542969 35.011719 14.824219 35.316406 15.121094 35.609375 C 15.519531 35.992188 16.152344 35.984375 16.535156 35.585938 C 16.917969 35.1875 16.90625 34.554688 16.511719 34.171875 C 14.988281 32.632813 13.875 30.738281 13.269531 28.660156 C 13.167969 28.242188 12.792969 27.945313 12.359375 27.949219 C 11.886719 27.574219 11.570313 27.035156 11.46875 26.441406 C 11.308594 25.925781 11.285156 25.378906 11.398438 24.851563 C 11.699219 24.988281 12.050781 24.972656 12.335938 24.800781 C 12.621094 24.632813 12.800781 24.332031 12.820313 24 C 12.835938 23.664063 12.871094 23.332031 12.929688 23 C 12.972656 22.601563 12.953125 22.203125 12.878906 21.808594 C 12.714844 20.695313 12.691406 19.5625 12.800781 18.441406 C 13 16.441406 14.101563 15.328125 15.800781 15.328125 C 16.015625 15.328125 16.226563 15.261719 16.398438 15.128906 C 17.484375 14.457031 18.722656 14.070313 20 14 L 19.550781 16.921875 C 19.476563 17.457031 19.640625 17.996094 20 18.398438 C 20 18.78125 19.941406 19.289063 19.921875 20 L 19.699219 20 C 18.179688 20.410156 17.558594 22.511719 18.21875 25 C 18.492188 26.476563 19.414063 27.757813 20.730469 28.480469 C 21.332031 30.28125 22.1875 31.988281 23.269531 33.550781 L 14.519531 38.621094 C 10.476563 40.945313 7.988281 45.257813 8 49.921875 L 8 51 Z M 54 55 C 54 55.550781 53.550781 56 53 56 L 11 56 C 10.449219 56 10 55.550781 10 55 L 10 49.921875 C 10 45.996094 12.09375 42.367188 15.488281 40.398438 L 24.488281 35.191406 C 26.550781 37.53125 29.160156 39.128906 32.03125 39.128906 C 34.898438 39.128906 37.5 37.539063 39.550781 35.210938 L 48.550781 40.398438 C 51.933594 42.375 54.007813 46.003906 54 49.921875 Z M 61.921875 50.191406 C 61.921875 50.636719 61.558594 51 61.109375 51 L 56 51 L 56 49.921875 C 56 45.28125 53.527344 40.992188 49.511719 38.671875 L 40.789063 33.671875 C 41.886719 32.109375 42.746094 30.394531 43.339844 28.578125 C 44.683594 27.835938 45.605469 26.515625 45.851563 25 C 46.136719 24.027344 46.191406 23 46.011719 22 C 45.886719 21.078125 45.25 20.300781 44.371094 20 L 44.148438 20 C 44.148438 19.429688 44.148438 19 44.101563 18.640625 C 44.628906 18.234375 44.890625 17.566406 44.78125 16.910156 L 44.328125 14 L 45.160156 14 C 48.550781 13.789063 51.679688 15.820313 52.871094 19 C 52.496094 19.019531 52.140625 19.171875 51.871094 19.429688 C 51.382813 19.9375 51.273438 20.695313 51.589844 21.320313 C 51.933594 22.175781 52.125 23.082031 52.160156 24 C 52.1875 24.359375 52.40625 24.675781 52.730469 24.828125 C 53 24.945313 53.300781 24.945313 53.570313 24.828125 C 53.6875 25.359375 53.664063 25.914063 53.5 26.429688 C 53.390625 27.007813 53.09375 27.535156 52.660156 27.929688 C 52.21875 27.933594 51.832031 28.226563 51.710938 28.648438 C 51.300781 30.019531 50.679688 31.3125 49.871094 32.488281 C 49.519531 33 49.128906 33.484375 48.699219 33.929688 C 48.421875 34.21875 48.125 34.488281 47.808594 34.738281 C 47.480469 35.003906 47.351563 35.449219 47.492188 35.847656 C 47.628906 36.25 48.007813 36.515625 48.429688 36.519531 C 48.636719 36.507813 48.835938 36.429688 49 36.300781 C 49.457031 35.941406 49.882813 35.542969 50.269531 35.109375 L 58.199219 40.238281 C 60.515625 41.707031 61.921875 44.257813 61.921875 47 Z "/>
<path style=" fill:#8D6C9F;" d="M 39.550781 39.109375 L 32 42.878906 L 24.449219 39.101563 C 23.960938 38.875 23.378906 39.078125 23.136719 39.5625 C 22.898438 40.046875 23.082031 40.632813 23.558594 40.890625 L 31.558594 44.890625 C 31.839844 45.027344 32.167969 45.027344 32.449219 44.890625 L 40.449219 40.890625 C 40.78125 40.738281 41.003906 40.417969 41.03125 40.054688 C 41.054688 39.691406 40.882813 39.339844 40.578125 39.140625 C 40.269531 38.945313 39.882813 38.925781 39.558594 39.101563 Z "/>
<path style=" fill:#8D6C9F;" d="M 47 50 C 46.449219 50 46 50.449219 46 51 L 46 53 C 46 53.550781 46.449219 54 47 54 C 47.550781 54 48 53.550781 48 53 L 48 51 C 48 50.449219 47.550781 50 47 50 Z "/>
<path style=" fill:#8D6C9F;" d="M 52 50 C 51.449219 50 51 50.449219 51 51 L 51 53 C 51 53.550781 51.449219 54 52 54 C 52.550781 54 53 53.550781 53 53 L 53 51 C 53 50.449219 52.550781 50 52 50 Z "/>
<path style=" fill:#8D6C9F;" d="M 42 50 C 41.449219 50 41 50.449219 41 51 L 41 53 C 41 53.550781 41.449219 54 42 54 C 42.550781 54 43 53.550781 43 53 L 43 51 C 43 50.449219 42.550781 50 42 50 Z "/>
<path style=" fill:#8D6C9F;" d="M 37 50 C 36.449219 50 36 50.449219 36 51 L 36 53 C 36 53.550781 36.449219 54 37 54 C 37.550781 54 38 53.550781 38 53 L 38 51 C 38 50.449219 37.550781 50 37 50 Z "/>
<path style=" fill:#8D6C9F;" d="M 32 50 C 31.449219 50 31 50.449219 31 51 L 31 53 C 31 53.550781 31.449219 54 32 54 C 32.550781 54 33 53.550781 33 53 L 33 51 C 33 50.449219 32.550781 50 32 50 Z "/>
<path style=" fill:#8D6C9F;" d="M 27 50 C 26.449219 50 26 50.449219 26 51 L 26 53 C 26 53.550781 26.449219 54 27 54 C 27.550781 54 28 53.550781 28 53 L 28 51 C 28 50.449219 27.550781 50 27 50 Z "/>
<path style=" fill:#8D6C9F;" d="M 22 50 C 21.449219 50 21 50.449219 21 51 L 21 53 C 21 53.550781 21.449219 54 22 54 C 22.550781 54 23 53.550781 23 53 L 23 51 C 23 50.449219 22.550781 50 22 50 Z "/>
<path style=" fill:#8D6C9F;" d="M 17 50 C 16.449219 50 16 50.449219 16 51 L 16 53 C 16 53.550781 16.449219 54 17 54 C 17.550781 54 18 53.550781 18 53 L 18 51 C 18 50.449219 17.550781 50 17 50 Z "/>
<path style=" fill:#8D6C9F;" d="M 12 50 C 11.449219 50 11 50.449219 11 51 L 11 53 C 11 53.550781 11.449219 54 12 54 C 12.550781 54 13 53.550781 13 53 L 13 51 C 13 50.449219 12.550781 50 12 50 Z "/>
<path style=" fill:#8D6C9F;" d="M 32.46875 10.441406 L 37.71875 8.789063 C 38.246094 8.625 38.539063 8.0625 38.375 7.535156 C 38.210938 7.007813 37.648438 6.714844 37.121094 6.878906 L 31.871094 8.539063 C 31.34375 8.707031 31.050781 9.265625 31.214844 9.796875 C 31.378906 10.324219 31.941406 10.617188 32.46875 10.449219 Z "/>
</g>
</svg>
