<?xml version="1.0" encoding="UTF-8"?>
<svg xmlns="http://www.w3.org/2000/svg" xmlns:xlink="http://www.w3.org/1999/xlink" viewBox="0 0 64 64" version="1.1">
<g id="surface1">
<path style=" fill:#C2CDE7;" d="M 9 23 L 49 23 L 49 55 C 49 56.105469 48.105469 57 47 57 L 11 57 C 9.894531 57 9 56.105469 9 55 Z "/>
<path style=" fill:#C5E4FA;" d="M 38 40 L 38 44 C 38 44.550781 37.550781 45 37 45 L 21 45 C 20.449219 45 20 44.550781 20 44 L 20 40 C 20 39.449219 20.449219 39 21 39 L 37 39 C 37.550781 39 38 39.449219 38 40 Z "/>
<path style=" fill:#BBDEF9;" d="M 53 47 L 58.558594 50.671875 C 58.886719 50.886719 59.269531 51 59.660156 51 L 62 51 C 62.550781 51 63 50.550781 63 50 L 63 34 C 63 33.449219 62.550781 33 62 33 L 59.660156 33 C 59.269531 33 58.886719 33.113281 58.558594 33.328125 L 53 37 Z "/>
<path style=" fill:#ACB7D0;" d="M 9 53 L 49 53 L 49 55 C 49 56.105469 48.105469 57 47 57 L 11 57 C 9.894531 57 9 56.105469 9 55 Z "/>
<path style=" fill:#D2EDFF;" d="M 62 34 L 63 34 L 63 50 L 62 50 C 60.34375 50 59 48.65625 59 47 L 59 37 C 59 35.34375 60.34375 34 62 34 Z "/>
<path style=" fill:#E3F2FF;" d="M 38 40 L 38 44 C 38 44.550781 37.550781 45 37 45 L 32 45 L 37.710938 39.289063 C 37.898438 39.480469 38 39.734375 38 40 Z "/>
<path style=" fill:#E3F2FF;" d="M 34 39 L 28 45 L 22 45 L 28 39 Z "/>
<path style=" fill:#E3F2FF;" d="M 24 39 L 21 42 L 21 39 Z "/>
<path style=" fill:#F9DD8F;" d="M 57 18 C 57 26.285156 50.285156 33 42 33 C 33.714844 33 27 26.285156 27 18 C 27 9.714844 33.714844 3 42 3 C 50.285156 3 57 9.714844 57 18 Z "/>
<path style=" fill:#F5C872;" d="M 46.601563 32.28125 C 42.121094 33.730469 36.691406 33.101563 31.449219 29.351563 C 31.230469 29.191406 31.035156 29 30.871094 28.78125 C 27.140625 23.78125 26.328125 18.570313 27.5 14.148438 C 27.6875 13.414063 28.195313 12.804688 28.886719 12.488281 C 29.574219 12.171875 30.371094 12.183594 31.050781 12.519531 C 32.121094 13.070313 32.65625 14.300781 32.328125 15.460938 C 31.527344 18.890625 32.359375 22.5 34.589844 25.230469 C 34.773438 25.472656 34.996094 25.683594 35.25 25.851563 C 38.074219 27.863281 41.664063 28.480469 45 27.53125 C 46.140625 27.140625 47.394531 27.609375 48 28.648438 C 48.371094 29.304688 48.425781 30.09375 48.15625 30.796875 C 47.886719 31.496094 47.316406 32.042969 46.601563 32.28125 Z "/>
<path style=" fill:#ACB7D0;" d="M 45 18 C 45 19.65625 43.65625 21 42 21 C 40.34375 21 39 19.65625 39 18 C 39 16.34375 40.34375 15 42 15 C 43.65625 15 45 16.34375 45 18 Z "/>
<path style=" fill:#F9DD8F;" d="M 23 24 C 23 30.074219 18.074219 35 12 35 C 5.925781 35 1 30.074219 1 24 C 1 17.925781 5.925781 13 12 13 C 18.074219 13 23 17.925781 23 24 Z "/>
<path style=" fill:#ACB7D0;" d="M 15 24 C 15 25.65625 13.65625 27 12 27 C 10.34375 27 9 25.65625 9 24 C 9 22.34375 10.34375 21 12 21 C 13.65625 21 15 22.34375 15 24 Z "/>
<path style=" fill:#F9E3AE;" d="M 43 61 C 41.894531 61 41 60.105469 41 59 L 41 57 L 45 57 L 45 59 C 45 60.105469 44.105469 61 43 61 Z "/>
<path style=" fill:#F9E3AE;" d="M 15 61 C 13.894531 61 13 60.105469 13 59 L 13 57 L 17 57 L 17 59 C 17 60.105469 16.105469 61 15 61 Z "/>
<path style=" fill:#ACB7D0;" d="M 49 37 L 53 37 L 53 47 L 49 47 Z "/>
<path style=" fill:#FFEB9B;" d="M 12 13 C 10.621094 13 9.5 14.121094 9.5 15.5 C 9.5 16.878906 10.621094 18 12 18 C 15.3125 18 18 20.6875 18 24 C 18 25.378906 19.121094 26.5 20.5 26.5 C 21.878906 26.5 23 25.378906 23 24 C 23 17.925781 18.074219 13 12 13 Z "/>
<path style=" fill:#8D6C9F;" d="M 42 10 C 42.550781 10 43 9.550781 43 9 L 43 7 C 43 6.449219 42.550781 6 42 6 C 41.449219 6 41 6.449219 41 7 L 41 9 C 41 9.550781 41.449219 10 42 10 Z "/>
<path style=" fill:#8D6C9F;" d="M 42 14 C 39.789063 14 38 15.789063 38 18 C 38 20.210938 39.789063 22 42 22 C 44.210938 22 46 20.210938 46 18 C 46 15.789063 44.210938 14 42 14 Z M 42 20 C 40.894531 20 40 19.105469 40 18 C 40 16.894531 40.894531 16 42 16 C 43.105469 16 44 16.894531 44 18 C 44 19.105469 43.105469 20 42 20 Z "/>
<path style=" fill:#8D6C9F;" d="M 16 24 C 16 21.789063 14.210938 20 12 20 C 9.789063 20 8 21.789063 8 24 C 8 26.210938 9.789063 28 12 28 C 14.210938 28 16 26.210938 16 24 Z M 10 24 C 10 22.894531 10.894531 22 12 22 C 13.105469 22 14 22.894531 14 24 C 14 25.105469 13.105469 26 12 26 C 10.894531 26 10 25.105469 10 24 Z "/>
<path style=" fill:#8D6C9F;" d="M 62 32 L 59.660156 32 C 59.074219 32 58.5 32.175781 58.011719 32.5 L 52.699219 36 L 50 36 L 50 31.839844 C 57.167969 27.699219 59.996094 18.773438 56.515625 11.261719 C 53.039063 3.75 44.402344 0.128906 36.605469 2.921875 C 28.8125 5.710938 24.433594 13.984375 26.511719 22 L 23.828125 22 C 22.859375 16.230469 17.867188 12.007813 12.019531 11.996094 C 6.167969 11.984375 1.164063 16.191406 0.171875 21.957031 C -0.820313 27.722656 2.484375 33.363281 8 35.308594 L 8 55 C 8 56.65625 9.34375 58 11 58 L 12 58 L 12 59 C 12 60.65625 13.34375 62 15 62 C 16.65625 62 18 60.65625 18 59 L 18 58 L 40 58 L 40 59 C 40 60.65625 41.34375 62 43 62 C 44.65625 62 46 60.65625 46 59 L 46 58 L 47 58 C 48.65625 58 50 56.65625 50 55 L 50 48 L 52.699219 48 L 58 51.5 C 58.488281 51.824219 59.0625 52 59.648438 52 L 62 52 C 63.105469 52 64 51.105469 64 50 L 64 34 C 64 32.894531 63.105469 32 62 32 Z M 8 33.160156 C 3.238281 31.050781 0.957031 25.585938 2.808594 20.714844 C 4.660156 15.847656 9.996094 13.277344 14.957031 14.867188 C 19.917969 16.453125 22.769531 21.644531 21.449219 26.683594 C 20.132813 31.71875 15.101563 34.847656 10 33.800781 C 9.3125 33.660156 8.640625 33.445313 8 33.160156 Z M 16 59 C 16 59.550781 15.550781 60 15 60 C 14.449219 60 14 59.550781 14 59 L 14 58 L 16 58 Z M 44 59 C 44 59.550781 43.550781 60 43 60 C 42.449219 60 42 59.550781 42 59 L 42 58 L 44 58 Z M 48 36 L 48 55 C 48 55.550781 47.550781 56 47 56 L 11 56 C 10.449219 56 10 55.550781 10 55 L 10 54 L 37 54 C 37.550781 54 38 53.550781 38 53 C 38 52.449219 37.550781 52 37 52 L 10 52 L 10 35.828125 C 13.484375 36.417969 17.046875 35.441406 19.746094 33.164063 C 22.441406 30.882813 24 27.53125 24 24 L 27.171875 24 C 30.484375 32.1875 39.808594 36.140625 48 32.828125 Z M 48 30.648438 C 41.1875 33.917969 33.007813 31.226563 29.464844 24.550781 C 25.921875 17.878906 28.273438 9.597656 34.792969 5.78125 C 41.316406 1.96875 49.6875 3.976563 53.769531 10.335938 C 57.847656 16.695313 56.1875 25.140625 50 29.480469 C 49.371094 29.929688 48.699219 30.320313 48 30.648438 Z M 52 46 L 50 46 L 50 38 L 52 38 Z M 62 50 L 59.660156 50 C 59.464844 50 59.273438 49.9375 59.109375 49.828125 L 54 46.460938 L 54 37.539063 L 59.109375 34.171875 C 59.273438 34.0625 59.464844 34 59.660156 34 L 62 34 Z "/>
<path style=" fill:#8D6C9F;" d="M 58 38 L 58 46 C 58 46.550781 58.449219 47 59 47 C 59.550781 47 60 46.550781 60 46 L 60 38 C 60 37.449219 59.550781 37 59 37 C 58.449219 37 58 37.449219 58 38 Z "/>
<path style=" fill:#8D6C9F;" d="M 37 38 L 21 38 C 19.894531 38 19 38.894531 19 40 L 19 44 C 19 45.105469 19.894531 46 21 46 L 37 46 C 38.105469 46 39 45.105469 39 44 L 39 40 C 39 38.894531 38.105469 38 37 38 Z M 21 44 L 21 40 L 37 40 L 37 44 Z "/>
<path style=" fill:#8D6C9F;" d="M 40 53 C 40 53.550781 40.449219 54 41 54 L 45 54 C 45.550781 54 46 53.550781 46 53 C 46 52.449219 45.550781 52 45 52 L 41 52 C 40.449219 52 40 52.449219 40 53 Z "/>
<path style=" fill:#8D6C9F;" d="M 42 26 C 41.449219 26 41 26.449219 41 27 L 41 29 C 41 29.550781 41.449219 30 42 30 C 42.550781 30 43 29.550781 43 29 L 43 27 C 43 26.449219 42.550781 26 42 26 Z "/>
<path style=" fill:#8D6C9F;" d="M 38 24.929688 C 37.769531 24.796875 37.496094 24.761719 37.238281 24.828125 C 36.980469 24.898438 36.761719 25.070313 36.628906 25.300781 L 35.628906 27.03125 C 35.382813 27.503906 35.550781 28.089844 36.015625 28.359375 C 36.480469 28.628906 37.074219 28.480469 37.359375 28.03125 L 38.359375 26.300781 C 38.496094 26.070313 38.53125 25.796875 38.464844 25.539063 C 38.398438 25.285156 38.230469 25.0625 38 24.929688 Z "/>
<path style=" fill:#8D6C9F;" d="M 33.710938 21.628906 L 31.980469 22.628906 C 31.527344 22.917969 31.382813 23.511719 31.652344 23.972656 C 31.917969 24.4375 32.503906 24.609375 32.980469 24.359375 L 34.710938 23.359375 C 35.164063 23.074219 35.308594 22.480469 35.039063 22.015625 C 34.769531 21.550781 34.183594 21.382813 33.710938 21.628906 Z "/>
<path style=" fill:#8D6C9F;" d="M 51 19 L 53 19 C 53.550781 19 54 18.550781 54 18 C 54 17.449219 53.550781 17 53 17 L 51 17 C 50.449219 17 50 17.449219 50 18 C 50 18.550781 50.449219 19 51 19 Z "/>
<path style=" fill:#8D6C9F;" d="M 34 18 C 34 17.449219 33.550781 17 33 17 L 31 17 C 30.449219 17 30 17.449219 30 18 C 30 18.550781 30.449219 19 31 19 L 33 19 C 33.550781 19 34 18.550781 34 18 Z "/>
</g>
</svg>
