<?xml version="1.0" encoding="UTF-8"?>
<svg xmlns="http://www.w3.org/2000/svg" xmlns:xlink="http://www.w3.org/1999/xlink" viewBox="0 0 64 64" version="1.1">
<g id="surface1">
<path style=" fill:#85CBF8;" d="M 48.058594 11.140625 L 2.710938 17.75 C 1.71875 17.894531 0.988281 18.75 1 19.75 L 1 52.269531 C 0.988281 53.269531 1.71875 54.125 2.710938 54.269531 L 48.058594 60.878906 C 48.675781 60.972656 49.308594 60.917969 49.898438 60.71875 L 59.628906 57.480469 C 60.457031 57.207031 61.007813 56.429688 61 55.558594 L 61 16.441406 C 61 15.578125 60.449219 14.8125 59.628906 14.539063 L 49.898438 11.300781 C 49.308594 11.105469 48.675781 11.050781 48.058594 11.140625 Z "/>
<path style=" fill:#7BBEEB;" d="M 61 57 L 52.949219 59.679688 C 52.035156 59.984375 51.03125 59.832031 50.25 59.269531 C 49.464844 58.707031 49 57.804688 49 56.839844 L 49 15.160156 C 49 14.195313 49.460938 13.289063 50.246094 12.722656 C 51.027344 12.15625 52.035156 12.003906 52.949219 12.308594 L 61 15 Z "/>
<path style=" fill:#FAEFDE;" d="M 35 46 L 15 43 L 15 29 L 35 26 Z "/>
<path style=" fill:#EFD8BE;" d="M 18 41 L 18 31 C 18 29.894531 17.105469 29 16 29 L 15 29 L 15 43 L 16 43 C 17.105469 43 18 42.105469 18 41 Z "/>
<path style=" fill:#8D6C9F;" d="M 59.949219 13.601563 L 50.21875 10.359375 C 49.480469 10.113281 48.691406 10.039063 47.921875 10.148438 L 42 11 L 42 9.289063 C 42 7.839844 41.371094 6.457031 40.273438 5.507813 C 39.175781 4.558594 37.71875 4.132813 36.28125 4.339844 L 35.058594 4.519531 C 33.625 2.042969 30.832031 0.691406 28 1.101563 L 20 2.261719 C 16.554688 2.757813 14 5.710938 14 9.191406 L 14 15.089844 L 2.570313 16.761719 C 1.082031 16.976563 -0.015625 18.257813 0 19.761719 L 0 52.269531 C -0.015625 53.773438 1.082031 55.054688 2.570313 55.269531 L 47.921875 61.878906 C 48.160156 61.914063 48.398438 61.929688 48.640625 61.929688 C 49.179688 61.929688 49.71875 61.84375 50.230469 61.671875 L 59.960938 58.429688 C 61.1875 58.015625 62.011719 56.855469 62 55.558594 L 62 16.441406 C 61.996094 15.152344 61.171875 14.007813 59.949219 13.601563 Z M 36.570313 6.320313 C 37.4375 6.195313 38.316406 6.453125 38.976563 7.03125 C 39.632813 7.609375 40.007813 8.445313 40 9.320313 L 40 11.320313 L 36 11.898438 L 36 8 C 35.996094 7.464844 35.933594 6.929688 35.808594 6.410156 Z M 34 8 L 34 12.160156 L 26 13.328125 L 26 10.460938 C 25.984375 8.957031 27.082031 7.675781 28.570313 7.460938 L 33.820313 6.691406 C 33.9375 7.117188 34 7.558594 34 8 Z M 16 9.191406 C 16 6.707031 17.820313 4.597656 20.28125 4.238281 L 28.28125 3.070313 C 30.007813 2.804688 31.75 3.480469 32.851563 4.839844 L 28.28125 5.511719 C 25.820313 5.867188 24 7.976563 24 10.460938 L 24 13.640625 L 16 14.800781 Z M 60 55.558594 C 60 55.988281 59.726563 56.371094 59.320313 56.511719 L 49.589844 59.75 C 49.144531 59.894531 48.671875 59.9375 48.210938 59.871094 L 2.859375 53.261719 C 2.363281 53.191406 1.996094 52.761719 2 52.261719 L 2 19.730469 C 1.996094 19.226563 2.363281 18.800781 2.859375 18.730469 L 48.199219 12.128906 C 48.664063 12.0625 49.136719 12.101563 49.578125 12.25 L 59.308594 15.488281 C 59.71875 15.628906 59.992188 16.011719 59.988281 16.441406 Z "/>
<path style=" fill:#8D6C9F;" d="M 34.851563 25 L 14.851563 28 C 14.355469 28.074219 13.996094 28.5 14 29 L 14 43 C 13.996094 43.5 14.355469 43.925781 14.851563 44 L 34.851563 47 L 35 47 C 35.550781 47 36 46.550781 36 46 L 36 26 C 36 25.707031 35.871094 25.429688 35.648438 25.238281 C 35.429688 25.046875 35.140625 24.960938 34.851563 25 Z M 34 35 L 26 35 L 26 28.359375 L 34 27.160156 Z M 16 29.859375 L 24 28.660156 L 24 35 L 16 35 Z M 16 37 L 24 37 L 24 43.339844 L 16 42.140625 Z M 26 43.640625 L 26 37 L 34 37 L 34 44.839844 Z "/>
<path style=" fill:#8D6C9F;" d="M 50 55 L 48 55 C 47.449219 55 47 55.449219 47 56 C 47 56.550781 47.449219 57 48 57 L 50 57 C 50.550781 57 51 56.550781 51 56 C 51 55.449219 50.550781 55 50 55 Z "/>
<path style=" fill:#8D6C9F;" d="M 50 50 L 48 50 C 47.449219 50 47 50.449219 47 51 C 47 51.550781 47.449219 52 48 52 L 50 52 C 50.550781 52 51 51.550781 51 51 C 51 50.449219 50.550781 50 50 50 Z "/>
<path style=" fill:#8D6C9F;" d="M 50 45 L 48 45 C 47.449219 45 47 45.449219 47 46 C 47 46.550781 47.449219 47 48 47 L 50 47 C 50.550781 47 51 46.550781 51 46 C 51 45.449219 50.550781 45 50 45 Z "/>
<path style=" fill:#8D6C9F;" d="M 50 40 L 48 40 C 47.449219 40 47 40.449219 47 41 C 47 41.550781 47.449219 42 48 42 L 50 42 C 50.550781 42 51 41.550781 51 41 C 51 40.449219 50.550781 40 50 40 Z "/>
<path style=" fill:#8D6C9F;" d="M 50 35 L 48 35 C 47.449219 35 47 35.449219 47 36 C 47 36.550781 47.449219 37 48 37 L 50 37 C 50.550781 37 51 36.550781 51 36 C 51 35.449219 50.550781 35 50 35 Z "/>
<path style=" fill:#8D6C9F;" d="M 50 30 L 48 30 C 47.449219 30 47 30.449219 47 31 C 47 31.550781 47.449219 32 48 32 L 50 32 C 50.550781 32 51 31.550781 51 31 C 51 30.449219 50.550781 30 50 30 Z "/>
<path style=" fill:#8D6C9F;" d="M 50 25 L 48 25 C 47.449219 25 47 25.449219 47 26 C 47 26.550781 47.449219 27 48 27 L 50 27 C 50.550781 27 51 26.550781 51 26 C 51 25.449219 50.550781 25 50 25 Z "/>
<path style=" fill:#8D6C9F;" d="M 50 20 L 48 20 C 47.449219 20 47 20.449219 47 21 C 47 21.550781 47.449219 22 48 22 L 50 22 C 50.550781 22 51 21.550781 51 21 C 51 20.449219 50.550781 20 50 20 Z "/>
<path style=" fill:#8D6C9F;" d="M 50 15 L 48 15 C 47.449219 15 47 15.449219 47 16 C 47 16.550781 47.449219 17 48 17 L 50 17 C 50.550781 17 51 16.550781 51 16 C 51 15.449219 50.550781 15 50 15 Z "/>
</g>
</svg>
