<?xml version="1.0" encoding="UTF-8"?>
<svg xmlns="http://www.w3.org/2000/svg" xmlns:xlink="http://www.w3.org/1999/xlink" viewBox="0 0 64 64" version="1.1">
<g id="surface1">
<path style=" fill:#72CAAF;" d="M 14.351563 46.429688 L 2.839844 53.820313 C 1.691406 54.554688 1 55.828125 1 57.191406 L 1 61 C 1 62.105469 1.894531 63 3 63 L 36.921875 63 C 38.023438 63 38.921875 62.105469 38.921875 61 L 38.921875 57.25 C 38.921875 55.890625 38.230469 54.625 37.089844 53.890625 L 25.558594 46.429688 "/>
<path style=" fill:#61BC9E;" d="M 43 58 L 5 58 C 2.789063 58 1 59.789063 1 62 C 1 62.550781 1.449219 63 2 63 L 46 63 C 46.550781 63 47 62.550781 47 62 C 47 59.789063 45.210938 58 43 58 Z "/>
<path style=" fill:#85CBF8;" d="M 38.351563 46.429688 L 26.839844 53.820313 C 25.691406 54.554688 25 55.828125 25 57.191406 L 25 61 C 25 62.105469 25.894531 63 27 63 L 60.921875 63 C 62.023438 63 62.921875 62.105469 62.921875 61 L 62.921875 57.25 C 62.921875 55.890625 62.230469 54.625 61.089844 53.890625 L 49.558594 46.429688 "/>
<path style=" fill:#6CBAE5;" d="M 59 58 L 25 58 L 25 62 C 25 62.550781 25.449219 63 26 63 L 62 63 C 62.550781 63 63 62.550781 63 62 C 63 59.789063 61.210938 58 59 58 Z "/>
<path style=" fill:#FAEFDE;" d="M 35.449219 40.421875 C 35.230469 40.421875 34.53125 39.871094 34.171875 38.570313 C 33.808594 37.269531 34.171875 36.390625 34.300781 36.351563 C 34.300781 36.351563 35.628906 36.128906 35.640625 35.878906 C 35.660156 35.515625 35.703125 35.148438 35.769531 34.789063 C 35.808594 34.40625 35.789063 34.019531 35.710938 33.640625 C 35.523438 32.433594 35.492188 31.210938 35.621094 30 C 35.859375 27.75 37.238281 26.410156 39.339844 26.410156 C 39.496094 26.410156 39.652344 26.359375 39.78125 26.269531 C 41.210938 25.433594 42.839844 24.992188 44.5 25 L 45.238281 25 C 49.730469 25 52.96875 27.191406 54.300781 31 C 53.789063 30.941406 53.960938 31.289063 53.601563 31.621094 C 53.238281 31.949219 52.351563 32.089844 52.691406 32.960938 C 53.085938 33.867188 53.3125 34.839844 53.359375 35.828125 C 53.359375 36.078125 54.691406 35.640625 54.699219 35.640625 C 55.078125 36.558594 55.128906 37.578125 54.839844 38.53125 C 54.460938 39.503906 53.824219 40.355469 53 41 C 51.308594 46.359375 51.578125 43.839844 51.210938 44.429688 C 49.578125 47 47.179688 49 44.5 49 C 40.671875 49 37.398438 45 36.160156 41 C 36.085938 40.664063 35.792969 40.425781 35.449219 40.421875 Z "/>
<path style=" fill:#FAEFDE;" d="M 11.449219 40.421875 C 11.230469 40.421875 10.53125 39.871094 10.171875 38.570313 C 9.808594 37.269531 10.171875 36.390625 10.300781 36.351563 C 10.300781 36.351563 11.628906 36.128906 11.640625 35.878906 C 11.660156 35.515625 11.703125 35.148438 11.769531 34.789063 C 11.808594 34.40625 11.789063 34.019531 11.710938 33.640625 C 11.523438 32.433594 11.492188 31.210938 11.621094 30 C 11.859375 27.75 13.238281 26.410156 15.339844 26.410156 C 15.496094 26.410156 15.652344 26.359375 15.78125 26.269531 C 17.210938 25.433594 18.839844 24.992188 20.5 25 L 21.238281 25 C 25.730469 25 28.96875 27.191406 30.300781 31 C 29.789063 30.941406 29.960938 31.289063 29.601563 31.621094 C 29.238281 31.949219 28.351563 32.089844 28.691406 32.960938 C 29.085938 33.867188 29.3125 34.839844 29.359375 35.828125 C 29.359375 36.078125 30.691406 35.640625 30.699219 35.640625 C 31.078125 36.558594 31.128906 37.578125 30.839844 38.53125 C 30.460938 39.503906 29.824219 40.355469 29 41 C 27.308594 46.359375 27.578125 43.839844 27.210938 44.429688 C 25.578125 47 23.179688 49 20.5 49 C 16.671875 49 13.398438 45 12.160156 41 C 12.085938 40.664063 11.792969 40.425781 11.449219 40.421875 Z "/>
<path style=" fill:#CDA1A7;" d="M 12.359375 33.398438 C 14.289063 33.269531 15.957031 32 16.589844 30.171875 C 18.53125 30.820313 19.171875 32.75 28.21875 32.109375 C 29.121094 32.050781 29.21875 32.359375 29.511719 32.109375 C 29.800781 31.859375 29.039063 30.808594 29.511719 30.859375 C 28.417969 27.207031 24.957031 24.78125 21.148438 25 L 20.46875 25 C 18.929688 24.996094 17.421875 25.421875 16.109375 26.230469 C 15.992188 26.320313 15.847656 26.371094 15.699219 26.371094 C 13.769531 26.371094 12.488281 27.671875 12.269531 29.851563 C 12.15625 31.023438 12.1875 32.203125 12.359375 33.371094 Z "/>
<path style=" fill:#8B8E98;" d="M 36.359375 33.398438 C 38.289063 33.269531 39.957031 32 40.589844 30.171875 C 42.53125 30.820313 43.171875 32.75 52.21875 32.109375 C 53.121094 32.050781 53.21875 32.359375 53.511719 32.109375 C 53.800781 31.859375 53.039063 30.808594 53.511719 30.859375 C 52.417969 27.207031 48.957031 24.78125 45.148438 25 L 44.46875 25 C 42.929688 24.996094 41.421875 25.421875 40.109375 26.230469 C 39.992188 26.320313 39.847656 26.371094 39.699219 26.371094 C 37.769531 26.371094 36.488281 27.671875 36.269531 29.851563 C 36.15625 31.023438 36.1875 32.203125 36.359375 33.371094 Z "/>
<path style=" fill:#72CAAF;" d="M 29 15 L 29 18 C 29 18.550781 29.449219 19 30 19 L 41.5 19 C 41.5 19 42.5 21.289063 46 22 C 45.128906 19.828125 46 19 46 19 L 50 19 C 50.550781 19 51 18.550781 51 18 L 51 6 C 51 5.449219 50.550781 5 50 5 L 37 5 "/>
<path style=" fill:#85CBF8;" d="M 36 15 L 22.5 15 C 22.5 15 21.5 17 17.828125 18 C 18.539063 15.921875 18 15 18 15 L 14 15 C 13.449219 15 13 14.550781 13 14 L 13 2 C 13 1.449219 13.449219 1 14 1 L 36 1 C 36.550781 1 37 1.449219 37 2 L 37 14 C 37 14.550781 36.550781 15 36 15 Z "/>
<path style=" fill:#8D6C9F;" d="M 61.628906 53 L 51.070313 46.21875 C 52.101563 44.871094 52.90625 43.359375 53.449219 41.75 C 54.488281 41.144531 55.214844 40.121094 55.449219 38.941406 C 56 36.878906 55.449219 35.140625 54.140625 34.789063 L 54.058594 34.789063 C 53.964844 34.238281 53.824219 33.699219 53.640625 33.171875 L 53.921875 33.269531 C 54.265625 33.414063 54.660156 33.351563 54.945313 33.113281 C 55.230469 32.875 55.359375 32.496094 55.28125 32.128906 C 54.4375 27.257813 50.101563 23.773438 45.160156 24 L 44.488281 24 C 42.734375 24.003906 41.011719 24.464844 39.488281 25.339844 C 36.910156 25.480469 35.089844 27.339844 34.800781 30.238281 C 34.683594 31.492188 34.71875 32.753906 34.898438 34 C 34.898438 34.238281 34.96875 34.53125 34.960938 34.589844 L 34.960938 34.730469 L 34.871094 34.730469 C 33.558594 35.078125 33.011719 36.828125 33.558594 38.878906 C 33.792969 40.058594 34.523438 41.082031 35.558594 41.691406 C 36.03125 43.113281 36.707031 44.457031 37.558594 45.691406 L 32 49.378906 L 27.121094 46.21875 C 28.152344 44.871094 28.957031 43.359375 29.5 41.75 C 30.539063 41.144531 31.265625 40.121094 31.5 38.941406 C 32.050781 36.878906 31.5 35.140625 30.191406 34.789063 L 30.109375 34.789063 C 30.015625 34.238281 29.875 33.699219 29.691406 33.171875 L 29.96875 33.269531 C 30.316406 33.414063 30.710938 33.351563 30.996094 33.113281 C 31.28125 32.875 31.410156 32.496094 31.328125 32.128906 C 30.484375 27.238281 26.117188 23.746094 21.160156 24 L 20.488281 24 C 18.734375 24.003906 17.011719 24.464844 15.488281 25.339844 C 12.910156 25.480469 11.089844 27.339844 10.800781 30.238281 C 10.683594 31.492188 10.71875 32.753906 10.898438 34 C 10.898438 34.238281 10.96875 34.53125 10.960938 34.589844 L 10.960938 34.730469 L 10.871094 34.730469 C 9.558594 35.078125 9.011719 36.828125 9.558594 38.878906 C 9.792969 40.058594 10.523438 41.082031 11.558594 41.691406 C 12.03125 43.113281 12.707031 44.457031 13.558594 45.691406 L 2.28125 53 C 0.84375 53.933594 -0.0195313 55.535156 0 57.25 L 0 61.199219 C 0.00390625 62.746094 1.261719 64 2.808594 64 L 61.109375 64 C 62.660156 64 63.921875 62.742188 63.921875 61.191406 L 63.921875 57.25 C 63.9375 55.535156 63.070313 53.929688 61.628906 53 Z M 61.910156 61.148438 C 61.910156 61.597656 61.546875 61.960938 61.101563 61.960938 L 2.808594 61.960938 C 2.378906 61.960938 2.019531 61.621094 2 61.191406 L 2 57.25 C 2 56.230469 2.515625 55.28125 3.371094 54.730469 L 14.871094 47.289063 L 15.289063 47.710938 C 15.679688 48.101563 16.3125 48.105469 16.703125 47.714844 C 17.097656 47.324219 17.097656 46.691406 16.710938 46.300781 L 15.769531 45.351563 C 14.636719 43.960938 13.789063 42.359375 13.28125 40.640625 C 13.179688 40.222656 12.800781 39.925781 12.371094 39.929688 C 11.898438 39.554688 11.582031 39.015625 11.480469 38.421875 C 11.316406 37.90625 11.292969 37.355469 11.410156 36.828125 C 11.707031 36.964844 12.050781 36.945313 12.332031 36.78125 C 12.609375 36.617188 12.792969 36.324219 12.820313 36 C 12.835938 35.664063 12.871094 35.332031 12.929688 35 C 12.972656 34.601563 12.953125 34.203125 12.878906 33.808594 C 12.714844 32.695313 12.691406 31.5625 12.800781 30.441406 C 13 28.441406 14.101563 27.328125 15.800781 27.328125 C 16.015625 27.328125 16.226563 27.261719 16.398438 27.128906 C 17.632813 26.382813 19.046875 25.992188 20.488281 26 L 21.160156 26 C 24.550781 25.789063 27.679688 27.820313 28.871094 31 C 28.5 31.019531 28.144531 31.167969 27.871094 31.421875 C 27.386719 31.929688 27.28125 32.6875 27.601563 33.308594 C 27.945313 34.167969 28.132813 35.078125 28.160156 36 C 28.1875 36.359375 28.40625 36.675781 28.730469 36.828125 C 28.992188 36.949219 29.296875 36.949219 29.558594 36.828125 C 29.683594 37.359375 29.660156 37.910156 29.5 38.429688 C 29.386719 39.007813 29.09375 39.539063 28.660156 39.941406 C 28.199219 39.921875 27.789063 40.21875 27.660156 40.660156 C 26.992188 43.03125 25.640625 45.148438 23.769531 46.75 C 23.335938 47.09375 23.261719 47.722656 23.605469 48.15625 C 23.949219 48.589844 24.578125 48.664063 25.011719 48.320313 C 25.238281 48.140625 25.460938 47.949219 25.671875 47.738281 L 30.070313 50.589844 L 28.359375 51.699219 C 27.894531 52 27.765625 52.621094 28.066406 53.085938 C 28.367188 53.550781 28.984375 53.679688 29.449219 53.378906 L 38.878906 47.28125 L 39.300781 47.699219 C 39.6875 48.09375 40.324219 48.09375 40.714844 47.703125 C 41.105469 47.316406 41.109375 46.683594 40.71875 46.289063 L 39.78125 45.339844 C 38.644531 43.949219 37.800781 42.351563 37.289063 40.628906 C 37.1875 40.210938 36.8125 39.917969 36.378906 39.921875 C 35.90625 39.542969 35.589844 39.003906 35.488281 38.410156 C 35.328125 37.894531 35.304688 37.347656 35.421875 36.820313 C 35.714844 36.949219 36.050781 36.929688 36.328125 36.769531 C 36.605469 36.605469 36.789063 36.320313 36.820313 36 C 36.835938 35.664063 36.871094 35.332031 36.929688 35 C 36.972656 34.601563 36.953125 34.203125 36.878906 33.808594 C 36.714844 32.695313 36.691406 31.5625 36.800781 30.441406 C 37 28.441406 38.101563 27.328125 39.800781 27.328125 C 40.015625 27.328125 40.226563 27.261719 40.398438 27.128906 C 41.632813 26.382813 43.046875 25.992188 44.488281 26 L 45.160156 26 C 48.550781 25.789063 51.679688 27.820313 52.871094 31 C 52.5 31.019531 52.144531 31.167969 51.871094 31.421875 C 51.386719 31.929688 51.28125 32.6875 51.601563 33.308594 C 51.945313 34.167969 52.132813 35.078125 52.160156 36 C 52.1875 36.359375 52.40625 36.675781 52.730469 36.828125 C 52.992188 36.949219 53.296875 36.949219 53.558594 36.828125 C 53.683594 37.359375 53.660156 37.910156 53.5 38.429688 C 53.386719 39.007813 53.09375 39.539063 52.660156 39.941406 C 52.199219 39.921875 51.789063 40.21875 51.660156 40.660156 C 50.992188 43.03125 49.640625 45.148438 47.769531 46.75 C 47.335938 47.09375 47.261719 47.722656 47.605469 48.15625 C 47.949219 48.589844 48.578125 48.664063 49.011719 48.320313 C 49.238281 48.140625 49.460938 47.949219 49.671875 47.738281 L 60.5 54.738281 C 61.355469 55.292969 61.871094 56.242188 61.871094 57.261719 Z "/>
<path style=" fill:#8D6C9F;" d="M 42 56 C 41.449219 56 41 56.449219 41 57 L 41 59 C 41 59.550781 41.449219 60 42 60 C 42.550781 60 43 59.550781 43 59 L 43 57 C 43 56.449219 42.550781 56 42 56 Z "/>
<path style=" fill:#8D6C9F;" d="M 47 56 C 46.449219 56 46 56.449219 46 57 L 46 59 C 46 59.550781 46.449219 60 47 60 C 47.550781 60 48 59.550781 48 59 L 48 57 C 48 56.449219 47.550781 56 47 56 Z "/>
<path style=" fill:#8D6C9F;" d="M 52 56 C 51.449219 56 51 56.449219 51 57 L 51 59 C 51 59.550781 51.449219 60 52 60 C 52.550781 60 53 59.550781 53 59 L 53 57 C 53 56.449219 52.550781 56 52 56 Z "/>
<path style=" fill:#8D6C9F;" d="M 57 56 C 56.449219 56 56 56.449219 56 57 L 56 59 C 56 59.550781 56.449219 60 57 60 C 57.550781 60 58 59.550781 58 59 L 58 57 C 58 56.449219 57.550781 56 57 56 Z "/>
<path style=" fill:#8D6C9F;" d="M 37 56 C 36.449219 56 36 56.449219 36 57 L 36 59 C 36 59.550781 36.449219 60 37 60 C 37.550781 60 38 59.550781 38 59 L 38 57 C 38 56.449219 37.550781 56 37 56 Z "/>
<path style=" fill:#8D6C9F;" d="M 32 56 C 31.449219 56 31 56.449219 31 57 L 31 59 C 31 59.550781 31.449219 60 32 60 C 32.550781 60 33 59.550781 33 59 L 33 57 C 33 56.449219 32.550781 56 32 56 Z "/>
<path style=" fill:#8D6C9F;" d="M 27 56 C 26.449219 56 26 56.449219 26 57 L 26 59 C 26 59.550781 26.449219 60 27 60 C 27.550781 60 28 59.550781 28 59 L 28 57 C 28 56.449219 27.550781 56 27 56 Z "/>
<path style=" fill:#8D6C9F;" d="M 22 56 C 21.449219 56 21 56.449219 21 57 L 21 59 C 21 59.550781 21.449219 60 22 60 C 22.550781 60 23 59.550781 23 59 L 23 57 C 23 56.449219 22.550781 56 22 56 Z "/>
<path style=" fill:#8D6C9F;" d="M 17 56 C 16.449219 56 16 56.449219 16 57 L 16 59 C 16 59.550781 16.449219 60 17 60 C 17.550781 60 18 59.550781 18 59 L 18 57 C 18 56.449219 17.550781 56 17 56 Z "/>
<path style=" fill:#8D6C9F;" d="M 12 56 C 11.449219 56 11 56.449219 11 57 L 11 59 C 11 59.550781 11.449219 60 12 60 C 12.550781 60 13 59.550781 13 59 L 13 57 C 13 56.449219 12.550781 56 12 56 Z "/>
<path style=" fill:#8D6C9F;" d="M 7 56 C 6.449219 56 6 56.449219 6 57 L 6 59 C 6 59.550781 6.449219 60 7 60 C 7.550781 60 8 59.550781 8 59 L 8 57 C 8 56.449219 7.550781 56 7 56 Z "/>
<path style=" fill:#8D6C9F;" d="M 14 16 L 17.199219 16 C 17.195313 16.574219 17.089844 17.144531 16.890625 17.679688 C 16.753906 18.035156 16.828125 18.433594 17.085938 18.714844 C 17.34375 18.996094 17.734375 19.105469 18.101563 19 C 20.011719 18.546875 21.726563 17.496094 23 16 L 28 16 L 28 18 C 28 19.105469 28.894531 20 30 20 L 40.929688 20 C 42.09375 21.605469 43.84375 22.683594 45.800781 23 L 46 23 C 46.332031 23 46.640625 22.835938 46.828125 22.5625 C 47.015625 22.289063 47.054688 21.9375 46.929688 21.628906 C 46.691406 21.121094 46.589844 20.558594 46.628906 20 L 50 20 C 51.105469 20 52 19.105469 52 18 L 52 6 C 52 4.894531 51.105469 4 50 4 L 38 4 L 38 2 C 38 0.894531 37.105469 0 36 0 L 14 0 C 12.894531 0 12 0.894531 12 2 L 12 14 C 12 15.105469 12.894531 16 14 16 Z M 50 6 L 50 18 L 46 18 C 45.742188 18 45.496094 18.101563 45.308594 18.28125 C 44.765625 18.890625 44.515625 19.707031 44.621094 20.519531 C 43.695313 20.148438 42.917969 19.472656 42.421875 18.609375 C 42.261719 18.246094 41.898438 18.007813 41.5 18.011719 L 30 18.011719 L 30 16 L 36 16 C 37.105469 16 38 15.105469 38 14 L 38 6 Z M 14 2 L 36 2 L 36 14 L 22.5 14 C 22.132813 14 21.792969 14.203125 21.621094 14.53125 C 21.011719 15.394531 20.164063 16.0625 19.179688 16.449219 C 19.277344 15.765625 19.167969 15.070313 18.859375 14.449219 C 18.671875 14.160156 18.34375 13.992188 18 14 L 14 14 Z "/>
</g>
</svg>
